<?xml version="1.0" encoding="utf-8"?>
<!-- Generator: Adobe Illustrator 20.1.0, SVG Export Plug-In . SVG Version: 6.00 Build 0)  -->
<svg version="1.1" id="Layer_1" xmlns="http://www.w3.org/2000/svg" xmlns:xlink="http://www.w3.org/1999/xlink" x="0px" y="0px"
	 viewBox="0 0 1527.1 1145.7" style="enable-background:new 0 0 1527.1 1145.7;" xml:space="preserve">
<style type="text/css">
	.st0{opacity:0.25;fill:#231F20;enable-background:new    ;}
	.st1{fill:#0072BC;}
	.st2{fill:#FDFDFC;}
	.st3{fill:#ED1D24;}
	.st4{fill:#1C8ABA;}
	.st5{fill:#231F20;}
	.st6{fill:#0DB14B;}
	.st7{fill:#FDB71F;}
	.st8{fill:none;stroke:#6D6E71;stroke-width:1.144;stroke-linecap:round;stroke-linejoin:round;stroke-miterlimit:1;}
	.st9{fill:#A77436;}
	.st10{fill:#BE9563;}
	.st11{fill:#ADCBEB;}
	.st12{fill:#FFFFFF;}
	.st13{fill:#986A2F;}
	.st14{fill:#8B6129;}
</style>
<image style="overflow:visible;enable-background:new    ;" width="6371" height="4783" xlink:href="2C0256B9.jpg"  transform="matrix(0.2398 0 0 0.2398 0.4243 7.319514e-02)">
</image>
<g id="mapDetails">
	<g id="parking_1_">
		<path id="pavement" class="st0" d="M587.1,1059.5l-2.3-0.1h-8.2c0,0,0-0.1,0.1-0.2c1.3-0.1,4-0.4,0.2-0.6c-1-0.1-2.4-0.1-4.3-0.2
			c-0.7,0-1.8,0.3-3.1,0.8c-10.6,4.6-38.2,25.8-43.3,18.5c-6.6-9.6-15.7-22.1-30.5-28.6c-10.3-4.6-33.7-8.5-58.5-12.5
			c-31.5-5.2-64.1-10.5-73.4-18.3c-9.5-7.9-35.7-27.9-73.8-42.1c-26.3-9.9-58.4-39.8-84.2-63.9l-16-14.8
			c-16.4-14.7-23.3-45.5-28.8-70.2c-3.4-15.2-6.7-29.5-11-33.3c-11.5-10.2-64.4-28.3-64.9-28.4c-0.1,0-0.1-0.1-0.2-0.1l-20,41.2
			c8.1,1.5,58.7,11,67.9,20.3c5.8,5.8,19.9,27.8,14.2,47.7c-4,14-16.7,23.7-37.7,28.6c-45.8,10.8-60.9,63.1-61,63.6
			c-1.3,5.3-45,150.5-46.9,156.7l-2.2-416.8l97.2,34.7l-9.9,20.4c4.2,1.4,54.2,18.6,66.1,29.2c5.3,4.7,8.3,18.3,12.2,35.4
			c5.4,24.2,12.2,54.3,27.6,68.1l16,14.8c25.5,23.8,57.3,53.5,82.9,63.1c38.6,14.5,65.3,34.8,74.9,42.8c8.5,7.1,41.9,12.6,71.5,17.4
			c25,4.1,48.7,8,59.5,12.8c15.8,7,25.9,17.4,32.7,27.5c2.5,3.8,18.7-7.2,29.9-13.9c-7.6,0-15,0.2-15,0.9l0.2-28.1l41.8-0.4
			L587.1,1059.5z"/>
		<g id="parkingSymbol">
			<rect id="symbolBg" x="39.6" y="758.8" class="st1" width="26.3" height="26.3"/>
			<path id="pSymbol" class="st2" d="M50.5,779.8h-3.7v-15.6h5c3.9,0,6.5,1.3,6.5,4.8c0,3.3-2.2,4.9-6,4.9h-1.8V779.8z M50.5,771.4
				h0.7c2.2,0,3.3-0.4,3.3-2.4s-1.4-2.3-3.4-2.3h-0.6V771.4z"/>
		</g>
	</g>
	<g id="skiLifts">
		<g id="magicCarpet_1_">
			<path id="magicCarpetLift" class="st3" d="M107,572.6c-1-0.5-2.2-0.1-2.7,0.8l-11.1,21.1c-1.7-0.6-3.4-0.9-5.3-0.9
				c-5.3,0-10,2.6-12.9,6.6l-0.1,0.1c-0.1,0.1-0.1,0.2-0.2,0.3s-0.1,0.2-0.2,0.3c-0.8,1.2-1.4,2.5-1.8,4c-0.1,0.2-0.1,0.4-0.2,0.6
				c0,0.1-0.1,0.3-0.1,0.4c0,0.1-0.1,0.3-0.1,0.4c0,0.2-0.1,0.5-0.1,0.7l0,0v0.1c0,0.1,0,0.1,0,0.2c0,0.1,0,0.1,0,0.2
				c0,0.1,0,0.2,0,0.2c0,0.1,0,0.1,0,0.2c0,0.1,0,0.1,0,0.2c0,0.1,0,0.1,0,0.2c0,0.1,0,0.2,0,0.3v0.1c0,0.1,0,0.1,0,0.2
				c0,0.1,0,0.1,0,0.2v0.7c0,0.1,0,0.1,0,0.2c0,0.1,0,0.2,0,0.4c0,0.1,0,0.2,0,0.3s0,0.3,0,0.4c0,0.2,0,0.5,0.1,0.7
				c0,0.2,0.1,0.3,0.1,0.5c0.1,0.4,0.2,0.8,0.3,1.2c0,0.1,0,0.2,0.1,0.2c0.4,1.5,1,2.8,1.8,3.9c0.3-1.4,1.1-2.1,2.6-2.2
				c0.9-0.1,1.7-0.3,2.6-0.4c0.4-0.1,0.7,0,0.9,0.4c0.3,0.5,0.7,0.8,1.2,0.9c0.2,0,0.4,0,0.7,0c0.8-0.1,1.3-0.6,1.5-1.4
				c0.1-0.3,0.4-0.6,0.6-0.6c1-0.2,2.1-0.4,3.1-0.5c1.3-0.2,2.6-0.4,3.9-0.6c0.2,0,0.5,0.1,0.7,0.2c1.1,1.1,2.5,0.9,3.2-0.5
				c0.1-0.2,0.3-0.4,0.5-0.4c1.9-0.3,3.8-0.7,5.7-1c0.7-0.1,0.8,0.2,0.7,0.8c-0.2,1-1,1.7-2,1.9c-4.7,0.8-9.3,1.6-14,2.3
				c-1.6,0.3-3.3,0.5-5,0.8c-0.4,0.1-0.8,0.1-1.2,0.2c-1.8,0.3-3.5,0.6-5.3,0.9c1,1.6,2.3,3,3.8,4l-30.2,57.1
				c-0.5,1-0.1,2.2,0.8,2.7c0.3,0.2,0.6,0.2,0.9,0.2c0.7,0,1.4-0.4,1.8-1.1l30.1-57c1.2,0.5,2.5,0.8,3.8,1l0,0c0,0,0,0,0.1,0
				s0.2,0,0.4,0c0.1,0,0.1,0,0.2,0l0,0c0.1,0,0.1,0,0.2,0s0.2,0,0.2,0c0.1,0,0.2,0,0.3,0h0.1c0.1,0,0.2,0,0.3,0h0.1
				c0.1,0,0.1,0,0.2,0h0.1h0.4c0.1,0,0.2,0,0.3,0c0.1,0,0.3,0,0.4,0c0.3,0,0.5,0,0.8-0.1c0.1,0,0.3,0,0.4-0.1c0.3,0,0.5-0.1,0.8-0.1
				l0,0c0.1,0,0.2,0,0.3-0.1c0.1,0,0.2,0,0.3-0.1c0.1,0,0.2,0,0.3-0.1l0,0c5.7-1.5,10.2-6.1,11.4-12c0-0.1,0-0.2,0-0.2
				c0.2-1,0.3-2.1,0.3-3.2c0-1.8-0.3-3.5-0.8-5.1c0-0.1-0.1-0.2-0.1-0.3s-0.1-0.2-0.1-0.3c0,0,0-0.1-0.1-0.2c0-0.1-0.1-0.2-0.1-0.2
				c0-0.1-0.1-0.2-0.1-0.3s-0.1-0.1-0.1-0.2c-1.2-2.7-3.2-5-5.6-6.6l11.1-21C108.4,574.4,108,573.2,107,572.6z M83.5,612.9
				c0,0.5,0,1,0,1.5c0,0.9-0.6,1.6-1.5,1.6c-0.1,0-0.1,0-0.2,0c-0.8-0.1-1.3-0.6-1.4-1.5c0-1.9,0-3.9,0-5.8c0-0.9,0.7-1.6,1.5-1.5
				c0.8,0,1.4,0.7,1.5,1.6c0,1,0,1.9,0,2.8L83.5,612.9L83.5,612.9z M82,606.7c-1.1,0-2-1-2-2s1-1.9,2-1.9c1.1,0,1.9,0.9,1.9,2
				C84,605.8,83.1,606.7,82,606.7z M95.2,612.1c0,0.9-0.6,1.5-1.4,1.6c-0.9,0.1-1.6-0.6-1.6-1.5c0-2,0-3.9,0-5.9
				c0-0.9,0.7-1.5,1.5-1.5s1.5,0.7,1.5,1.6c0,1,0,1.9,0,2.9C95.2,610.2,95.2,611.2,95.2,612.1z M93.6,604.3c-0.3,0-0.7-0.1-0.9-0.3
				c-0.6-0.4-1-1-1-1.7c0-1,1-2,2-1.9c0.3,0,0.6,0.1,0.8,0.2c0.7,0.3,1.1,1,1.1,1.8C95.6,603.5,94.7,604.3,93.6,604.3z"/>
			<path id="e" class="st3" d="M37.4,675.6h-7.9v6.1h8.8v3.1H25.7V664h12.1v3.1h-8.3v5.4h7.9V675.6z"/>
		</g>
		<g id="littleRider_1_">
			<path id="littleRiderLift" class="st3" d="M1019.2,1072.1l-31.3-4.7c0.1-0.8,0.2-1.6,0.2-2.4c0-8.7-7-15.8-15.8-15.8
				c-7.9,0-14.5,5.9-15.6,13.5l-347.5-52c-1.1-0.2-2.1,0.6-2.3,1.7c-0.2,1.1,0.6,2.1,1.7,2.3l348,52.1c0.9,7.8,7.6,13.9,15.6,13.9
				c6.5,0,12-3.9,14.4-9.4l31.8,4.8c0.1,0,0.2,0,0.3,0c1,0,1.8-0.7,2-1.7C1021,1073.3,1020.3,1072.3,1019.2,1072.1z M975,1078.4
				c0,0.9-0.6,1.4-1.6,1.4c-0.9,0-1.4-0.5-1.5-1.4c0-0.7,0-1.4,0-2.3h-2c-1.1,0-1.7-0.5-1.7-1.6c0-1.9,0-3.7,0-5.6
				c0-0.1,0-0.3,0-0.4l0,0c0.1-0.8,0.7-1.3,1.5-1.3c0.9,0,1.5,0.6,1.5,1.8l0,0c0,1.3,0,2.7,0,4.1c0.9,0,1.5,0,2.2,0
				c1,0,1.5,0.5,1.5,1.4C975,1075.8,975,1077.1,975,1078.4z M973.7,1060.2c0.6-0.8,1.1-1,1.9-0.7c0.9,0.3,1.4,0.9,1.4,1.8
				s-0.3,1.4-1.4,1.9C975.8,1061.6,975.2,1060.6,973.7,1060.2z M974,1060.6c0.9,0.3,1.3,0.9,1.3,1.9c0,0.9-0.5,1.5-1.5,1.9
				c0.2-1.7-0.5-2.6-2-3.1C972.5,1060.6,973.2,1060.4,974,1060.6z M972.3,1061.8c0.8,0.3,1.3,1,1.3,1.8c0,0.7-0.2,1.2-0.8,1.6
				c-0.2,0.1-0.4,0.3-0.7,0.3c0-0.2,0-0.3,0-0.4c0-1.4-0.6-2.3-2-2.6C970.7,1061.7,971.5,1061.5,972.3,1061.8z M971.8,1064.8
				c0,0.1,0,0.2,0,0.3c-0.1,0.9-1,1.7-1.9,1.7c-1.1,0-2-0.9-2-2c0-0.1,0-0.2,0-0.3c0.2-0.9,1-1.6,2-1.6
				C971,1062.8,971.8,1063.7,971.8,1064.8z M976.8,1077.2c0,0.9-0.4,1.3-1.4,1.4c0-1.2,0-2.3,0-3.5c0-1.8-0.5-2.4-2.3-2.3h-1.4
				c0-1.1,0-2.1,0-3.1c0-0.2,0-0.4,0-0.6c0-0.8-0.1-1.5-0.9-2c0-0.1,0-0.2,0.1-0.2c0.5-0.1,0.7-1.1,1.5-0.6c0.8,0.4,0.8,1.2,0.8,2
				v3.8c0.8,0,1.4,0,2.1,0c1.1,0,1.6,0.5,1.6,1.5C976.8,1074.7,976.8,1075.9,976.8,1077.2z M978.5,1076c0,0.9-0.3,1.2-1.4,1.4
				c0-1.1,0-2.2,0-3.3c0.1-1.9-0.5-2.5-2.4-2.5h-1.2c-0.2-0.7-0.2-1.5-0.2-2.3c0.1-1.2,0.1-2.5-1-3.6c0.3-0.2,0.6-0.4,0.8-0.5
				s0.4-0.2,0.6-0.2c0.3,0,0.5,0.2,0.7,0.4c0.2,0.3,0.3,0.7,0.3,1.1v4.3c0.8,0,1.4,0,2.1,0c1,0,1.6,0.5,1.6,1.6
				C978.6,1073.6,978.6,1074.8,978.5,1076z M980.3,1074.7c0,0.9-0.4,1.4-1.4,1.6c0-1.2,0-2.3,0-3.4c0.1-1.8-0.5-2.5-2.3-2.4
				c-0.4,0-0.8,0-1.2,0c-0.1-0.3-0.1-0.6-0.2-0.9c-0.1-1.4,0.3-2.8-0.4-4.1c-0.2-0.3-0.4-0.6-0.7-0.9c0.6-0.2,1.2-0.7,1.6-0.6
				c0.8,0.2,0.9,1,0.9,1.8c0,1.2,0,2.5,0,3.9h2c0.7,0,1.2,0.2,1.5,0.7c0.2,0.3,0.2,0.6,0.2,1
				C980.3,1072.4,980.3,1073.6,980.3,1074.7z M979.9,1053c-0.7,0.4-1.6,0.7-2.3,1c-0.8,0.3-1.6,0.8-2.4,0.9c-2.4,0.6-4,2.1-5.1,4.3
				c-0.9,1.7-2,3.3-3,5c-0.1,0.2-0.2,0.4-0.3,0.6c-0.3,0.5-0.4,1-0.5,1.6c0,0.6,0,1.2,0,1.8c0,2.5,0,5,0,7.5c0,0.8,0.2,1.1,1.1,1.1
				c0.8-0.1,1.6,0,2.4,0c0.5,0,1.1,0.1,1,0.8c-0.1,0.3-0.6,0.7-1,0.7c-1.3,0.1-2.6,0-4,0c-0.7,0-1-0.4-1-1c0-3.1,0-6.2,0-9.3
				c0-0.8,0-1.5,0-2.3c0-0.4,0.2-0.8,0.4-1.2c0.1-0.2,0.2-0.3,0.3-0.5c1.3-2.2,2.6-4.4,3.9-6.5c0-0.1-0.1-0.1-0.1-0.2
				c-3.2,1.3-6.4,2.6-9.6,3.9c-0.3,0.1-0.6,0.3-0.9,0.3c-0.4,0-0.7-0.2-1.1-0.3c0.2-0.4,0.3-0.9,0.6-1.1c1.6-0.7,3.2-1.3,4.7-1.9
				c5.3-2.1,10.5-4.3,15.8-6.4c0.2-0.1,0.4-0.2,0.5-0.2c0.4,0.1,0.7,0.2,1.1,0.4C980.2,1052.4,980.1,1052.9,979.9,1053z"/>
			<path id="d" class="st3" d="M1019.8,1043.5c1.7-0.3,3.8-0.4,6.1-0.4c3.9,0,6.6,0.8,8.5,2.4c2,1.6,3.2,4.1,3.2,7.7
				c0,3.7-1.3,6.5-3.2,8.3c-2.1,1.9-5.4,2.8-9.4,2.8c-2.2,0-3.9-0.1-5.1-0.3V1043.5z M1023.6,1061.2c0.5,0.1,1.3,0.1,2.1,0.1
				c4.9,0,7.9-2.7,7.9-8c0-4.6-2.6-7.2-7.4-7.2c-1.2,0-2.1,0.1-2.6,0.2V1061.2z"/>
		</g>
		<g id="chaletExpress_1_">
			<path id="chaletExpressLift" class="st3" d="M425.8,146.8c-0.9-0.6-2.2-0.4-2.8,0.6L99.3,639.9c-2.1-1-4.4-1.6-6.9-1.6
				c-8.7,0-15.7,7.1-15.7,15.7c0,4.8,2.1,9.1,5.5,12l-9.9,15c-0.6,0.9-0.4,2.2,0.6,2.8c0.3,0.2,0.7,0.3,1.1,0.3
				c0.7,0,1.3-0.3,1.7-0.9l9.9-15c2.1,1,4.4,1.6,6.9,1.6c8.7,0,15.8-7.1,15.8-15.8c0-4.8-2.1-9.1-5.5-11.9l323.7-492.5
				C427,148.7,426.7,147.4,425.8,146.8z M95.1,667.4c0,0.9-0.6,1.4-1.5,1.4s-1.4-0.5-1.5-1.3c0-0.7,0-1.4,0-2.3h-2
				c-1,0-1.6-0.4-1.7-1.3c0-0.1,0-0.2,0-0.3c0-1.9,0-3.8,0-5.6c0-1.1,0.6-1.7,1.5-1.7s1.5,0.6,1.5,1.8c0,0.4,0,0.8,0,1.2
				c0,0.9,0,1.9,0,2.9c0.9,0,1.5,0,2.2,0c1,0,1.5,0.5,1.5,1.4C95.1,664.8,95.1,666.1,95.1,667.4z M93.8,649.2c0.6-0.8,1.1-1,1.9-0.7
				c0.9,0.3,1.4,0.9,1.4,1.8c0,0.1,0,0.2,0,0.4c0,0.5-0.3,0.9-0.8,1.2c-0.2,0.1-0.4,0.2-0.6,0.3C95.8,650.6,95.2,649.6,93.8,649.2z
				 M94,649.7c0.9,0.3,1.3,0.9,1.3,1.9c0,0.9-0.4,1.5-1.5,1.9c0.2-1.5-0.3-2.4-1.5-2.9c-0.2-0.1-0.3-0.1-0.5-0.2
				c0.3-0.4,0.7-0.6,1.1-0.7C93.3,649.5,93.6,649.5,94,649.7z M92.2,650.8c0,0,0.1,0,0.2,0c0.8,0.3,1.3,1,1.3,1.8
				c0,0.9-0.5,1.5-1.5,1.9c0.1-1.1-0.1-2-0.8-2.5c-0.3-0.3-0.7-0.5-1.2-0.6C90.7,650.7,91.4,650.6,92.2,650.8z M91.2,652.3
				c0.4,0.3,0.7,0.9,0.7,1.5c0,1-0.9,1.9-2,1.9c-0.3,0-0.6-0.1-0.9-0.2c-0.7-0.3-1.1-1-1.1-1.8c0-1.1,0.9-1.9,2-1.9
				C90.4,651.9,90.8,652,91.2,652.3z M96.8,666.2c0,0.9-0.4,1.3-1.4,1.4c0-1.2,0-2.3,0-3.5c0-1.8-0.5-2.4-2.3-2.3h-1.4
				c0-1.1,0-2,0-3v-0.1c0-1,0.1-2-0.9-2.6c0-0.1,0-0.2,0.1-0.2c0.5-0.1,0.7-1.1,1.5-0.6c0.6,0.3,0.8,0.8,0.8,1.4c0,0.2,0,0.4,0,0.6
				c0,1.2,0,2.4,0,3.8c0.8,0,1.4,0,2.1,0c1.1,0,1.6,0.5,1.6,1.5C96.9,663.8,96.8,665,96.8,666.2z M98.6,665c0,0.9-0.3,1.2-1.4,1.4
				c0-1.1,0-2.2,0-3.3c0.1-1.9-0.5-2.5-2.4-2.5h-1.2c-0.5-1.4,0.1-3-0.3-4.4c-0.1-0.5-0.4-1-0.9-1.5c0.5-0.3,1-0.7,1.4-0.7
				c0.3,0,0.5,0.2,0.7,0.4c0.2,0.3,0.3,0.7,0.3,1.1v4.3c0.8,0,1.4,0,2.1,0c1,0,1.6,0.5,1.6,1.5C98.6,662.6,98.6,663.8,98.6,665z
				 M100.3,663.8c0,0.9-0.4,1.4-1.4,1.6c0-1.2-0.1-2.3,0-3.4c0.1-1.8-0.5-2.5-2.3-2.4c-0.4,0-0.8,0-1.2,0c-0.5-1.7,0.4-3.6-0.7-5.2
				c-0.1-0.2-0.3-0.4-0.5-0.6c0.5-0.2,1-0.6,1.4-0.6c0.1,0,0.2,0,0.3,0c0.8,0.2,0.9,1,0.9,1.8c0,1.2,0,2.5,0,3.9h2
				c1.1,0,1.7,0.6,1.7,1.7C100.4,661.5,100.3,662.6,100.3,663.8z M99.9,642.1c-0.7,0.4-1.6,0.7-2.4,1c-0.1,0-0.3,0.1-0.4,0.2
				c-0.7,0.3-1.3,0.6-2,0.8c-2.4,0.6-4,2.1-5.1,4.3c-1,1.9-2.2,3.7-3.3,5.6c-0.3,0.5-0.4,1-0.5,1.6c0,1.4,0,2.9,0,4.3
				c0,1.7,0,3.3,0,5c0,0.7,0.2,1.1,0.8,1.1c0.1,0,0.1,0,0.2,0c0.8-0.1,1.6,0,2.4,0c0.5,0,1.1,0.2,1,0.8c-0.1,0.3-0.6,0.7-1,0.7
				c-1.2,0.1-2.4,0-3.6,0h-0.3c-0.7,0-1-0.3-1-1v-4.2c0-2.4,0-4.9,0-7.3c0-0.4,0.2-0.8,0.4-1.2c1.4-2.3,2.8-4.7,4.2-7
				c0,0-0.1-0.1-0.1-0.2c-3.2,1.3-6.4,2.6-9.6,3.9c-0.3,0.1-0.6,0.3-0.9,0.3c-0.4,0-0.7-0.2-1.1-0.3c0.2-0.4,0.3-0.9,0.6-1
				c1.5-0.7,3.1-1.3,4.7-2c5.2-2.1,10.4-4.2,15.6-6.3c0.1,0,0.1,0,0.2-0.1c0.2-0.1,0.4-0.2,0.5-0.2c0.4,0.1,0.7,0.2,1.1,0.4
				C100.3,641.4,100.2,641.9,99.9,642.1z"/>
			<path id="a" class="st3" d="M84.5,697.3l-1.8,5.9h-3.9l6.7-20.8h4.9l6.8,20.8H93l-1.9-5.9H84.5z M90.4,694.4l-1.6-5.1
				c-0.4-1.3-0.7-2.7-1.1-3.9h-0.1c-0.3,1.2-0.6,2.7-1,3.9l-1.6,5.1H90.4z"/>
		</g>
		<g id="exhibitionLift">
			<path id="exhibition-lift" class="st3" d="M674.1,847.3c0-8.7-7-15.7-15.8-15.7c-1.9,0-3.8,0.3-5.5,1L433.4,178.2
				c-0.4-1-1.5-1.6-2.5-1.3s-1.6,1.5-1.3,2.5l219.7,655c-4,2.8-6.7,7.5-6.7,12.9c0,8.7,7,15.7,15.7,15.7c0.2,0,0.4,0,0.6,0l5.8,17.2
				c0.3,0.8,1.1,1.4,1.9,1.4c0.2,0,0.4,0,0.6-0.1c1-0.4,1.6-1.5,1.3-2.5l-5.6-16.6C669.4,860.4,674.1,854.4,674.1,847.3z M661,860.7
				c0,0.9-0.6,1.4-1.6,1.4c-0.4,0-0.7-0.1-1-0.3s-0.5-0.6-0.5-1.1c0-0.1,0-0.3,0-0.4c0-0.6,0-1.2,0-1.8h-0.6c-0.5,0-1,0-1.4,0
				c-1.1,0-1.7-0.5-1.7-1.6c0-1.9,0-3.8,0-5.6c0-0.4,0.1-0.8,0.3-1.1c0.3-0.4,0.7-0.6,1.2-0.6c0.9,0,1.5,0.6,1.5,1.8
				c0,1.3,0,2.7,0,4.1c0.9,0,1.5,0,2.2,0c0.6,0,1,0.2,1.2,0.5c0.1,0.2,0.2,0.4,0.3,0.7c0,0.1,0,0.1,0,0.2
				C661,858.1,661,859.4,661,860.7z M659.7,842.5c0.6-0.8,1.1-1,1.9-0.7c0.9,0.3,1.4,0.9,1.4,1.8c0,0.9-0.3,1.5-1.4,1.9
				C661.8,843.9,661.2,842.9,659.7,842.5z M660,842.9c0.9,0.3,1.3,1,1.3,1.9s-0.5,1.5-1.5,1.9c0.2-1.7-0.5-2.6-2-3.1
				C658.5,842.8,659.2,842.7,660,842.9z M658.3,844.1c0.8,0.3,1.3,1,1.3,1.8c0,0.9-0.4,1.5-1.5,1.9c0.1-1.2-0.2-2-0.9-2.6
				c-0.3-0.2-0.7-0.4-1.1-0.5c0.2-0.3,0.5-0.5,0.7-0.6C657.3,843.9,657.8,843.9,658.3,844.1z M657.4,845.8
				C657.4,845.8,657.4,845.9,657.4,845.8c0.3,0.4,0.5,0.8,0.5,1.2v0.1c-0.1,1-0.9,1.8-2,1.8s-2-0.9-2-2s0.9-1.9,2-1.9
				C656.5,845.2,657,845.4,657.4,845.8z M662.8,859.5c0,0.5-0.1,0.9-0.5,1.1c-0.2,0.2-0.5,0.3-1,0.3c0-1.1,0-2.1,0-3.2v-0.3
				c0-1.2-0.2-1.8-0.8-2.1c-0.3-0.2-0.8-0.2-1.5-0.2c-0.4,0-0.9,0-1.4,0c0-1.1,0-2.1,0-3.1s0.1-2-0.9-2.6c0-0.1,0-0.2,0.1-0.2
				c0.5-0.1,0.7-1.1,1.5-0.6c0.8,0.4,0.8,1.2,0.8,2v0.5c0,1.1,0,2.1,0,3.3c0.4,0,0.8,0,1.1,0s0.7,0,1,0c1.1,0,1.6,0.5,1.6,1.5
				C662.8,857,662.8,858.2,662.8,859.5z M664.5,858.3c0,0.9-0.3,1.2-1.4,1.4c0-1.1,0-2.2,0-3.3c0.1-1.9-0.5-2.5-2.4-2.5h-1.2
				c-0.2-0.6-0.2-1.3-0.2-2c0.1-1.3,0.2-2.7-1-3.9c0.5-0.3,1-0.7,1.4-0.7c0.7,0.1,1,0.7,1,1.5v4.3h2.1c1,0,1.6,0.5,1.6,1.6
				C664.6,855.8,664.6,857.1,664.5,858.3z M666.3,857c0,0.9-0.4,1.4-1.4,1.6c0-1.2,0-2.3,0-3.4c0.1-1.8-0.5-2.5-2.3-2.5
				c-0.4,0-0.8,0-1.2,0c-0.6-1.9,0.7-4.1-1.2-5.9c0.6-0.2,1.2-0.7,1.6-0.6c0.8,0.2,0.9,1,0.9,1.8c0,1.3,0,2.5,0,3.9h2
				c1.1,0,1.7,0.6,1.7,1.7C666.3,854.7,666.3,855.9,666.3,857z M665.9,835.3c-0.7,0.4-1.6,0.7-2.3,1c-0.8,0.3-1.6,0.8-2.4,1
				c-2.4,0.6-4,2.1-5.1,4.3c0,0,0,0,0,0.1c-0.8,1.6-1.8,3.1-2.7,4.6c-0.2,0.3-0.4,0.6-0.6,1c-0.3,0.5-0.4,1-0.5,1.6
				c0,3.1,0,6.2,0,9.3c0,0.8,0.2,1.2,1.1,1.1c0.8-0.1,1.6,0,2.4,0c0.5,0,1.1,0.2,1,0.8c-0.1,0.3-0.6,0.7-1,0.7c-1.3,0.1-2.6,0-4,0
				c-0.7,0-1-0.3-1-1c0-3.9,0-7.7,0-11.6c0-0.4,0.2-0.8,0.4-1.2c0.5-0.8,1-1.7,1.5-2.5c0.9-1.5,1.8-3,2.7-4.5c0-0.1-0.1-0.1-0.1-0.2
				c-1.2,0.5-2.4,1-3.6,1.5c-2,0.8-4,1.6-5.9,2.4c-0.3,0.1-0.6,0.3-0.9,0.3c-0.4,0-0.7-0.2-1.1-0.3c0.2-0.4,0.3-0.9,0.6-1.1
				c1.6-0.7,3.2-1.3,4.7-1.9c0.7-0.3,1.4-0.6,2.1-0.9c1.2-0.5,2.5-1,3.7-1.5c3.3-1.3,6.6-2.7,9.9-4c0.2-0.1,0.4-0.2,0.5-0.2
				c0.4,0.1,0.7,0.2,1.1,0.4C666.2,834.7,666.1,835.2,665.9,835.3z"/>
			<path id="b" class="st3" d="M676.3,878.6c1.2-0.2,3.4-0.4,5.5-0.4c2.8,0,4.5,0.3,6,1.3c1.3,0.8,2.2,2.1,2.2,3.9
				c0,1.9-1.2,3.7-3.5,4.5v0.1c2.2,0.6,4.2,2.3,4.2,5.2c0,1.9-0.8,3.3-2,4.3c-1.5,1.3-3.9,1.9-7.7,1.9c-2.1,0-3.7-0.2-4.7-0.3V878.6
				z M680,886.9h1.9c2.6,0,4.1-1.2,4.1-3c0-1.9-1.5-2.8-3.9-2.8c-1.1,0-1.8,0.1-2.2,0.2V886.9z M680,896.4c0.5,0.1,1.1,0.1,2,0.1
				c2.4,0,4.6-0.9,4.6-3.5c0-2.4-2.1-3.4-4.7-3.4H680V896.4z"/>
		</g>
		<g id="trailBlazer">
			<path id="trailBlazerLift" class="st3" d="M1409.3,950.9l-10.3-20.8c4.8-2.7,8-7.8,8-13.7c0-8.7-7.1-15.7-15.8-15.7
				c-2.2,0-4.3,0.5-6.2,1.3l-274.4-554.7c-0.5-1-1.7-1.4-2.7-0.9s-1.4,1.7-0.9,2.7L1381.5,904c-3.7,2.9-6.1,7.4-6.1,12.4
				c0,8.7,7.1,15.8,15.7,15.8c1.4,0,2.7-0.2,4-0.5l10.4,21.1c0.4,0.7,1.1,1.1,1.8,1.1c0.3,0,0.6-0.1,0.9-0.2
				C1409.4,953.1,1409.8,951.9,1409.3,950.9z M1389.5,928.9c-0.1,0.3-0.6,0.7-1,0.7c-1.3,0.1-2.6,0-4,0c-0.7,0-1-0.3-1-1
				c0-3.9,0-7.7,0-11.6c0-0.4,0.2-0.8,0.4-1.2c0.6-1.1,1.3-2.1,1.9-3.2c0.8-1.3,1.5-2.5,2.3-3.8c0-0.1-0.1-0.1-0.1-0.2
				c-1.2,0.5-2.3,0.9-3.5,1.4c-2,0.8-4.1,1.7-6.1,2.5c-0.3,0.1-0.6,0.3-0.9,0.3c-0.4,0-0.7-0.2-1.1-0.3c0.2-0.4,0.3-0.9,0.6-1.1
				c1.5-0.7,3.2-1.3,4.7-1.9c0.7-0.3,1.4-0.6,2.1-0.9c1.2-0.5,2.5-1,3.7-1.5c3.3-1.4,6.6-2.7,10-4c0.2-0.1,0.4-0.2,0.5-0.2
				c0.4,0.1,0.7,0.2,1.1,0.4c-0.2,0.3-0.3,0.8-0.5,1c-0.8,0.4-1.6,0.7-2.4,1s-1.6,0.7-2.4,1c-2.3,0.6-3.8,1.9-4.9,3.9
				c-0.1,0.2-0.2,0.3-0.2,0.5c-0.6,1.3-1.4,2.5-2.2,3.7c-0.4,0.6-0.8,1.3-1.2,1.9c-0.3,0.5-0.4,1-0.5,1.6c0,3.1,0,6.2,0,9.3
				c0,0.8,0.2,1.1,1,1.1c0.8-0.1,1.6,0,2.4,0C1389.1,928.2,1389.6,928.3,1389.5,928.9z M1392.6,911.5c0.6-0.8,1.1-1,1.9-0.7
				c0.9,0.3,1.4,0.9,1.4,1.8c0,0.9-0.3,1.4-1.4,1.9C1394.7,912.9,1394,912,1392.6,911.5z M1390.8,912.6c0.6-0.8,1.3-0.9,2.1-0.7
				c0.9,0.3,1.3,0.9,1.3,1.9c0,0.9-0.4,1.5-1.5,1.9C1392.9,914,1392.2,913.1,1390.8,912.6z M1389,913.8c0.5-0.6,1-0.8,1.6-0.8
				c0.2,0,0.4,0.1,0.6,0.1c0.8,0.3,1.3,1,1.3,1.8c0,0.4-0.1,0.8-0.4,1.2c-0.2,0.3-0.6,0.5-1.1,0.7
				C1391.2,915.2,1390.5,914.2,1389,913.8z M1390.7,916.1c0,1-0.9,1.9-2,2c-0.1,0-0.1,0-0.2,0c-1-0.1-1.8-1-1.8-2
				c0-0.4,0.1-0.7,0.3-1c0.3-0.5,1-0.9,1.7-0.9C1389.8,914.2,1390.7,915.1,1390.7,916.1z M1393.9,928.8c0,0.3,0,0.6,0,0.9
				c0,0.9-0.6,1.4-1.5,1.4s-1.4-0.5-1.5-1.3c0-0.7,0-1.4,0-2.3h-2c-1.1,0-1.7-0.5-1.7-1.6c0-1.9,0-3.8,0-5.6c0-1.1,0.6-1.7,1.5-1.7
				h0.1c0.9,0,1.4,0.7,1.4,1.8c0,0.4,0,0.8,0,1.1c0,1,0,1.9,0,3h2.2c1,0,1.5,0.5,1.5,1.4C1393.9,926.9,1393.9,927.9,1393.9,928.8z
				 M1395.7,928.5c0,0.8-0.4,1.3-1.2,1.4c-0.1,0-0.1,0-0.2,0v-0.4c0-1.1,0-2.1,0-3.1c0-1.8-0.5-2.4-2.3-2.3h-1.4V922
				c0-0.3,0-0.7,0-1c0-1,0.1-2-0.9-2.6c0-0.1,0-0.2,0.1-0.2c0.5-0.1,0.7-1.1,1.5-0.6c0.8,0.4,0.8,1.2,0.8,2c0,1.2,0,2.4,0,3.8
				c0.8,0,1.4,0,2.1,0c1.1,0,1.6,0.5,1.6,1.5C1395.7,926.1,1395.7,927.3,1395.7,928.5z M1397.4,926.9c0,0.1,0,0.3,0,0.4
				c0,0.9-0.3,1.2-1.4,1.4c0-1.1,0-2.2,0-3.3c0.1-1.9-0.5-2.5-2.4-2.5h-1.2c-0.6-1.9,0.7-4.1-1.2-5.9c0.3-0.2,0.7-0.4,1-0.6
				c0.1-0.1,0.3-0.1,0.4-0.1c0.7,0.1,1,0.7,1,1.5v4.3c0.5,0,0.9,0,1.3,0c0.3,0,0.5,0,0.8,0c1,0,1.6,0.5,1.6,1.5
				C1397.5,924.8,1397.4,925.8,1397.4,926.9z M1397.8,927.7L1397.8,927.7L1397.8,927.7c-0.1-1.3-0.1-2.3,0-3.4
				c0.1-1.8-0.5-2.5-2.3-2.5h-1.2c-0.2-0.5-0.2-1.1-0.2-1.7c0-1.4,0.3-2.9-1-4.2c0.6-0.2,1.1-0.7,1.6-0.6c0.8,0.2,0.9,1,0.9,1.8
				c0,1.2,0,2.5,0,3.9h2c1.1,0,1.7,0.6,1.7,1.7c0,1.2-0.1,2.3-0.1,3.5C1399.2,927,1398.8,927.5,1397.8,927.7z"/>
			<path id="c" class="st3" d="M1435.9,951.6c-0.9,0.5-2.9,0.9-5.4,0.9c-6.6,0-10.6-4.1-10.6-10.5c0-6.9,4.8-11,11.1-11
				c2.5,0,4.3,0.5,5.1,0.9l-0.8,3c-1-0.4-2.3-0.8-4.1-0.8c-4.2,0-7.3,2.7-7.3,7.7c0,4.6,2.7,7.5,7.3,7.5c1.5,0,3.2-0.3,4.1-0.8
				L1435.9,951.6z"/>
		</g>
	</g>
	<g id="intermediate">
		<g id="roadRunner">
			<path class="st4" d="M475.8,733.7h-4.3l0,0l2.9-4.3c0.5-0.9,0.9-1.7,1.4-2.6h0.1c-0.1,0.9-0.1,1.8-0.1,2.7V733.7z"/>
			<path class="st4" d="M489.3,860c-1.3-1.7-31.2-42.6-14.8-105c0.6-2.5,1.1-5.1,1.5-7.6h13v-29h-13.5c-4.2-28.1-18.1-57.6-30-82.8
				c-9-19-16.8-35.5-16.8-44.9c0-0.8-0.7-1.5-1.5-1.5s-1.5,0.7-1.5,1.5c0,10,7.6,26,17.1,46.2c11.7,24.9,25.4,54,29.7,81.6H460v29
				h12.9c-0.3,2.3-0.8,4.6-1.4,6.8c-16.4,62.7,12.1,103.1,15.4,107.5c0.3,0.4,0.8,0.6,1.2,0.6c0.3,0,0.6-0.1,0.9-0.3
				C489.7,861.6,489.8,860.7,489.3,860z M468.7,735.9V734l6.4-9.7h3.5v9.4h2v2.2h-2v4h-2.8v-4H468.7z"/>
		</g>
		<path id="roadsideRun" class="st4" d="M295.3,299.5c-0.2-0.8-1.1-1.2-1.9-0.9c-7,2.7-14,5.3-20.8,7.9
			c-57.6,21.8-108.7,41.1-149,72.2H95.3v25.9c-44.7,49-65.3,120-65,222.8c0,0.8,0.7,1.5,1.5,1.5s1.5-0.7,1.5-1.5
			c-0.5-109.6,22.9-175.1,63-219.6h28v-25.9c40.2-31.2,91.4-50.6,149.3-72.5c6.9-2.6,13.8-5.2,20.8-7.9
			C295.2,301.2,295.6,300.3,295.3,299.5z M109.5,401.3H98.9v-1.8l1.9-1.7c3.7-3.4,5.4-5.3,5.4-7.3c0-1.4-0.7-2.6-2.8-2.6
			c-1.4,0-2.5,0.7-3.3,1.3l-0.9-2.1c1.1-0.9,2.8-1.6,4.8-1.6c3.4,0,5.1,2.2,5.1,4.7c0,2.7-2,4.9-4.7,7.5l-1.4,1.2v0.1h6.4V401.3z
			 M116.4,401.5c-3.8,0-5.9-2.9-5.9-6.7c0-3,1.1-5.5,2.7-7c1.4-1.3,3.3-2.1,5.5-2.3c0.6-0.1,1.1-0.1,1.5-0.1l0,2.3
			c-0.4,0-0.9,0-1.5,0.1c-3.3,0.4-4.8,2.4-5.2,4.6h0.1c0.8-0.9,1.9-1.5,3.5-1.5c2.7,0,4.8,1.9,4.8,5.1
			C121.9,399,119.7,401.5,116.4,401.5z M116.2,393.1c-1.1,0-2.1,0.7-2.5,1.6c-0.1,0.2-0.2,0.5-0.2,0.9c0,2.1,1,3.8,2.9,3.8
			c1.5,0,2.5-1.3,2.5-3.2C118.9,394.3,117.9,393.1,116.2,393.1z"/>
		<g id="glades">
			<path class="st4" d="M1497.6,619.4c-3.5-22.8-13.2-43.2-18.7-53.3c-2-3.8-4.5-8.6-7.4-14.2c-11.3-21.8-28.3-54.7-42.3-67.3
				c-13.3-11.9-39.8-25.1-61.1-35.6c-14.3-7.1-26.7-13.2-32.1-17.4c-0.7-0.4-1.3-1-2.1-1.6v-24.1h-29v1.8
				c-28.4-19.9-71.4-44.1-120.1-47.2c-0.9-0.1-1.5,0.6-1.6,1.4c-0.1,0.8,0.6,1.6,1.4,1.6c48.9,3.1,92.1,27.9,120.3,47.9V435h29v-1.3
				c0.1,0.1,0.1,0.1,0.2,0.2c5.6,4.4,18.2,10.6,32.7,17.8c21.2,10.5,47.4,23.5,60.5,35.2c13.5,12.2,30.4,44.9,41.6,66.5
				c2.9,5.6,5.4,10.4,7.5,14.2c5.3,9.9,14.9,29.9,18.3,52.3c0.1,0.8,0.8,1.3,1.5,1.3c0,0,0.1,0,0.2,0
				C1497.3,621.1,1497.8,620.3,1497.6,619.4z M1315.5,427.5h-2.9v-12.9h0l-2.9,1.4l-0.5-2.2l3.8-1.9h2.5V427.5z M1324.1,427.7
				c-3.8,0-5.9-2.9-5.9-6.7c0-3,1.1-5.5,2.7-7c1.5-1.3,3.3-2.1,5.6-2.3c0.7-0.1,1.1-0.1,1.5-0.1l0,2.3c-0.4,0-0.9,0-1.5,0.1
				c-3.3,0.4-4.8,2.4-5.2,4.6h0.1c0.8-0.9,1.9-1.5,3.5-1.5c2.7,0,4.8,1.9,4.8,5.1C1329.6,425.2,1327.4,427.7,1324.1,427.7z
				 M1323.9,419.2c-1.1,0-2.1,0.7-2.5,1.6c-0.1,0.2-0.2,0.5-0.2,0.9c0,2.1,1,3.7,2.9,3.7c1.5,0,2.5-1.3,2.5-3.2
				C1326.6,420.5,1325.6,419.2,1323.9,419.2z"/>
		</g>
		<g id="exhibition">
			<path class="st4" d="M476.2,247.5c-1.9,0-2.9-1.7-2.9-3.8c0-0.4,0.1-0.7,0.2-0.9c0.4-0.9,1.4-1.6,2.5-1.6c1.7,0,2.7,1.3,2.7,3.1
				C478.7,246.2,477.7,247.5,476.2,247.5z"/>
			<path class="st4" d="M543.6,441c-1.1,0-2.1,0.7-2.5,1.6c-0.1,0.2-0.2,0.5-0.2,0.9c0,2.1,1,3.8,2.9,3.8c1.5,0,2.5-1.3,2.5-3.2
				C546.3,442.3,545.3,441,543.6,441z M543.6,441c-1.1,0-2.1,0.7-2.5,1.6c-0.1,0.2-0.2,0.5-0.2,0.9c0,2.1,1,3.8,2.9,3.8
				c1.5,0,2.5-1.3,2.5-3.2C546.3,442.3,545.3,441,543.6,441z M670.4,831.7c-26.8-137.8-39.4-159.6-48.6-175.5
				c-1.7-3-3.4-5.9-4.8-9.1h6.7v-28.4h-15v-0.3c-13.3-81-34.6-134.3-61.6-153.9c-1.4-1-3.4-4.3-5.7-9.4h16.9v-28.3H530
				c-16-43.6-38.7-115.9-55.7-170h16.2v-28.3h-25.1c-10.1-32-17.7-55.5-20.4-61.5c-0.4-0.7-1.2-1.1-2-0.7c-0.7,0.4-1.1,1.2-0.7,2
				c2.7,5.8,10.1,28.8,20,60.3h-0.5v28.3h9.4c23.2,73.9,44.1,139.6,58.3,177.2v21h8.6c3,6.5,5.3,10.5,7.1,11.7
				c26,19,47.4,72.9,60.4,151.9h-10.7v28.4h18.6c1.8,3.9,3.6,7,5.5,10.5c9.1,15.7,21.5,37.3,48.3,174.7c0.2,0.7,0.8,1.2,1.5,1.2h0.3
				C670.1,833.2,670.6,832.4,670.4,831.7z M470.3,243c0-3,1.1-5.5,2.7-7c1.4-1.4,3.3-2.1,5.5-2.3c0.6-0.1,1.1-0.1,1.5,0l0,2.3
				c-0.4,0-0.9,0-1.5,0.1c-3.3,0.4-4.9,2.4-5.2,4.6h0.1c0.8-0.9,2-1.5,3.5-1.5c2.7,0,4.8,1.9,4.8,5.1c0,3-2.2,5.6-5.5,5.6
				C472.4,249.8,470.3,246.9,470.3,243z M537.9,442.8c0-3,1.1-5.5,2.7-7c1.4-1.3,3.3-2.1,5.5-2.3c0.6-0.1,1.1-0.1,1.5,0l0,2.3
				c-0.4,0-0.9,0-1.5,0.1c-3.3,0.4-4.8,2.4-5.2,4.6h0.1c0.8-0.9,1.9-1.5,3.5-1.5c2.7,0,4.8,1.9,4.8,5.1c0,3-2.2,5.6-5.5,5.6
				C540,449.5,537.9,446.6,537.9,442.8z M609,641.2c-3.8,0-5.9-2.9-5.9-6.7c0-3,1.1-5.5,2.7-7c1.4-1.3,3.3-2.1,5.5-2.3
				c0.7-0.1,1.1-0.1,1.5-0.1l0,2.3c-0.4,0-0.9,0-1.5,0.1c-3.3,0.4-4.8,2.4-5.2,4.6h0.1c0.8-0.9,1.9-1.5,3.5-1.5
				c2.7,0,4.8,1.9,4.8,5.1C614.5,638.7,612.4,641.2,609,641.2z M608.8,632.7c-1.1,0-2.1,0.7-2.6,1.6c-0.1,0.2-0.2,0.5-0.2,0.9
				c0.1,2.1,1,3.7,2.9,3.7c1.5,0,2.5-1.3,2.5-3.2C611.5,634,610.6,632.7,608.8,632.7z M546.3,444.1c0-1.8-1-3.1-2.7-3.1
				c-1.1,0-2.1,0.7-2.5,1.6c-0.1,0.2-0.2,0.5-0.2,0.9c0,2.1,1,3.8,2.9,3.8C545.3,447.3,546.3,446,546.3,444.1z"/>
		</g>
		<path id="huronia" class="st4" d="M647.1,891.6c-0.1-0.9-0.9-1.4-1.7-1.3c-0.5,0.1-48.1,6.7-71.1-25.7
			c-34.7-48.9-57.1-142.4-62.1-220.9h11.9v-29h-13c-0.2-22.6,1.3-43.2,4.7-59.9c0.5-2.7,7.4-48.1,5.9-56.6c-0.1-0.8-0.9-1.3-1.7-1.2
			s-1.3,0.9-1.2,1.7c1.3,7.7-5,50.9-5.9,55.5c-3.3,16.8-4.9,37.5-4.8,60.5h-13v29h14c1.4,22.2,4.2,45.7,8.4,69.5
			c11.4,64.6,31.2,120.4,54.4,153.1c16.9,23.9,46.6,27.5,62.7,27.5c6.7,0,11.1-0.6,11.2-0.6C646.6,893.1,647.2,892.3,647.1,891.6z
			 M508.6,636.7c-1.9,0-3.5-0.5-4.4-1.1l0.7-2.2c0.6,0.4,2.1,1,3.5,1c2.3,0,3.2-1.3,3.1-2.5c0-1.8-1.7-2.6-3.5-2.6h-1.4v-2.2h1.3
			c1.4,0,3.1-0.6,3.1-2.2c0-1-0.8-1.9-2.5-1.9c-1.3,0-2.5,0.5-3.2,1l-0.7-2.1c0.9-0.6,2.6-1.2,4.5-1.2c3.2,0,4.9,1.8,4.9,3.8
			c0,1.6-1,3-2.9,3.6v0c1.9,0.3,3.4,1.8,3.4,3.9C514.7,634.6,512.5,636.7,508.6,636.7z"/>
		<path id="sidewinder" class="st4" d="M1042,346c-0.3-0.8-1.1-1.2-1.9-0.9c-17.5,6.3-142.1,64.6-213,109.7v-7.9h-29v28.2
			c-4.7,3.7-8.6,7.1-11.7,10.3c-30.6,31.4-51.5,77.3-62.2,136.5c-7.9,43.9-8.4,87.8-6.3,114.3c4.3,53.7-22.3,107.8-29.5,116.8
			c-0.6,0.6-0.4,1.6,0.2,2.1c0.2,0.2,0.6,0.3,0.9,0.3c0.5,0,0.9-0.2,1.2-0.6c7.3-9.2,34.5-64.4,30.1-119
			c-0.5-6.7-12.4-166.2,67.7-248.4c3.5-3.5,8-7.4,13.3-11.5h25.3v-17.6c70.2-45,196.5-104,214-110.4
			C1041.9,347.6,1042.3,346.8,1042,346z M809.8,469H807v-12.9h0l-2.9,1.4l-0.5-2.2l3.8-1.9h2.5V469z M819.4,469h-2.9v-12.9h0
			l-2.9,1.4l-0.5-2.2l3.8-1.9h2.5V469z"/>
		<path id="jackRabbit" class="st4" d="M873.8,727.8c-0.8-0.3-1.6,0.1-1.9,0.9c-6.2,18.5-34.9,48-64,73.3v-0.4h-29v24.2
			c-34.3,26.6-65.7,45.6-77.6,46.7c-0.8,0-1.4,0.8-1.3,1.6c0.1,0.8,0.7,1.4,1.5,1.4h0.1c14.1-1.3,47.4-22.9,77.3-45.9v1.1h29v-24.6
			c36.6-31.4,61.2-59.3,66.9-76.3C875.1,729,874.7,728.1,873.8,727.8z M788.5,823.7h-2.8v-12.9h0l-2.9,1.4l-0.5-2.2l3.8-1.9h2.5
			V823.7z M802.1,823.7h-10.6v-1.8l1.8-1.7c3.7-3.4,5.4-5.3,5.4-7.3c0-1.4-0.7-2.6-2.8-2.6c-1.4,0-2.5,0.7-3.3,1.3l-0.9-2.1
			c1.1-0.9,2.8-1.6,4.8-1.6c3.5,0,5.1,2.2,5.1,4.7c0,2.7-2,4.9-4.7,7.5l-1.4,1.2v0.1h6.4V823.7z"/>
		<path id="manitou" class="st4" d="M1472.2,738.2c-0.7-4.7-1.6-9.4-2.5-13.9h5.6v-29h-13.1c-9.4-29.3-22.7-50.7-37.4-59.2
			c-59.7-33.7-88.6-81.4-116.5-127.5c-7.5-12.4-15.1-25-23.4-37.4h2.4v-29h-23.6c-17.1-21.2-37.6-41.1-64.9-58.1
			c-0.7-0.4-1.7-0.2-2.1,0.5c-0.4,0.7-0.2,1.7,0.5,2.1c26,16.3,46,35.3,62.6,55.5h-1.6v29h23c8.7,12.9,16.7,26,24.5,39
			c28.1,46.4,57.2,94.5,117.5,128.5c14,8,26.7,28.5,35.8,56.6h-12.8v29h20.4c1,4.7,1.8,9.5,2.6,14.4c9.3,58.8,4.3,126.3-14.1,190.1
			c-0.3,0.8,0.2,1.7,1,1.9c0.1,0.1,0.3,0.1,0.4,0.1c0.6,0,1.2-0.4,1.4-1.1C1476.5,865.5,1481.5,797.5,1472.2,738.2z M1268.3,464.6
			h-2.9v-12.9h0l-2.8,1.4l-0.5-2.2l3.8-1.9h2.5V464.6z M1275.4,464.8c-1.8,0-3.3-0.4-4.1-0.9l0.6-2.2c0.7,0.4,2,0.8,3.4,0.8
			c1.7,0,3.4-1,3.4-2.9c0-1.8-1.3-3-4.4-3c-0.9,0-1.5,0-2.1,0.1l1-7.9h8.1v2.4h-6l-0.5,3.1c0.4,0,0.7-0.1,1.1-0.1
			c1.4,0,2.7,0.3,3.8,1c1.2,0.7,2,2.1,2,4C1281.7,462.4,1279.2,464.8,1275.4,464.8z M1457.6,718.2h-2.9v-12.9h0l-2.9,1.4l-0.5-2.2
			l3.8-1.9h2.5V718.2z M1464.6,718.5c-1.8,0-3.3-0.5-4.1-0.9l0.6-2.2c0.7,0.4,2,0.8,3.4,0.8c1.7,0,3.4-1,3.4-2.8c0-1.8-1.3-3-4.4-3
			c-0.9,0-1.5,0-2.1,0.1l1-7.9h8.1v2.5h-6l-0.4,3.1c0.4,0,0.7-0.1,1.1-0.1c1.4,0,2.7,0.3,3.8,1c1.2,0.8,2,2.1,2,4
			C1470.9,716,1468.5,718.5,1464.6,718.5z"/>
		<path id="mardiGras" class="st4" d="M656.6,441.8c-11.6-27-54-94.3-87.4-144.8h5.2v-29h-24.6c-12.6-18.6-24.5-35.6-34.3-49.2
			c-24.2-33.5-27.2-34-28.5-34.2c-0.9-0.2-1.7,0.4-1.8,1.2c-0.1,0.8,0.4,1.6,1.2,1.7c3.5,1.2,25.1,29.4,59.7,80.4h-0.8v29h20.2
			c0.1,0.1,0.2,0.2,0.3,0.4c33.3,50.2,76.4,118.5,88,145.5c0.3,0.6,0.8,0.9,1.4,0.9c0.2,0,0.4,0,0.6-0.1
			C656.6,443.3,656.9,442.4,656.6,441.8z M565.7,277.3l-6.6,13.7H556l6.6-13.1v0h-7.3v-2.5h10.5V277.3z"/>
	</g>
	<g id="advanced">
		<path id="whistler" class="st5" d="M1042.7,368.2c-0.7-0.3-1.5,0.1-1.8,0.8c-4.8,12.9-7.6,20.2-11.2,29.4
			c-2.3,6-4.9,12.8-8.6,22.4c-1.8,4.5-3.3,8.7-4.8,12.7c-7,18.9-13,35.3-33.7,73.4c-3.5,6.3-6.9,12.6-10.3,18.7l-8.5-8.5l-18.3,18.2
			l13.7,13.7c-3.2,5.7-6.3,11.3-9.5,16.9c-40.3,71.5-75.2,133.2-83.8,191.5c-4.6,30.9-1.6,59.2,9.1,86.5c1.4,3.6,3,7.3,4.7,10.9
			l-9.1,9.1l18.2,18.2l4-3.9c11.5,17.7,26.5,35.2,45.4,53c0.3,0.3,0.7,0.4,1,0.4s0.7-0.2,1-0.5c0.5-0.6,0.5-1.5-0.1-2
			c-18.8-17.6-33.8-35.2-45.3-53.1l12.2-12.2l-18.3-18.2l-6.9,6.9c-14-30.1-18.3-61.3-13.3-94.7c8.5-57.8,43.2-119.3,83.4-190.4
			c3.1-5.4,6.1-10.8,9.2-16.3l2.5,2.5l18.2-18.2l-7.7-7.7c3.6-6.4,7.1-12.8,10.7-19.4c20.7-38.3,27.1-55.5,33.8-73.8
			c1.4-4.1,3-8.2,4.7-12.7c3.7-9.6,6.4-16.4,8.7-22.4c3.6-9.2,6.4-16.5,11.3-29.4C1043.6,369.3,1043.2,368.5,1042.7,368.2z
			 M891.8,864.3h-1.4v-2.2h1.3c1.4,0,3.1-0.6,3.1-2.2c0-1.1-0.8-1.9-2.5-1.9c-1.3,0-2.6,0.5-3.2,1l-0.7-2.1c0.9-0.6,2.6-1.2,4.5-1.2
			c3.2,0,4.9,1.8,4.9,3.8c0,1.6-1,3-2.9,3.7v0c1.9,0.3,3.4,1.8,3.4,3.9c0,2.6-2.2,4.7-6.1,4.7c-1.9,0-3.5-0.5-4.4-1.1l0.7-2.2
			c0.6,0.4,2.1,1,3.5,1c2.3,0,3.2-1.3,3.2-2.5C895.4,865.1,893.7,864.3,891.8,864.3z M882.6,855.9h2.5v15.6h-2.8v-12.9h0l-2.9,1.4
			l-0.5-2.2L882.6,855.9z M959.9,543.7H957v-12.9H957l-2.9,1.4l-0.5-2.2l3.8-1.9h2.5V543.7z M967.2,544c-1.9,0-3.5-0.5-4.4-1.1
			l0.7-2.2c0.6,0.4,2.1,1,3.5,1c2.3,0,3.2-1.3,3.2-2.5c0-1.8-1.7-2.6-3.5-2.6h-1.4v-2.2h1.3c1.4,0,3.1-0.6,3.1-2.2
			c0-1.1-0.8-1.9-2.5-1.9c-1.3,0-2.5,0.6-3.2,1l-0.7-2.1c0.9-0.6,2.6-1.2,4.5-1.2c3.2,0,4.9,1.8,4.9,3.8c0,1.6-1,3-2.9,3.7v0
			c1.9,0.3,3.4,1.8,3.4,3.9C973.2,541.9,971,544,967.2,544z"/>
		<path id="hurricaneAlley" class="st5" d="M637.1,856.7l-66.6-207.1l11.2-11.2l-18.2-18.2l-1.8,1.8l-53.5-166.4l-0.4-1.1
			c-13.3-49.9-45.6-146-67-209.6c-8.5-25.4-15.3-45.5-18.7-56.3c-0.3-0.7-1-1.1-1.8-0.9c-0.7,0.3-1.1,1-0.9,1.8
			c3.4,10.9,10.2,30.9,18.7,56.3c21.4,63.6,53.7,159.7,67,209.5v0.1l0.4,1l54,167.7l-14.2,14.2l18.2,18.2l4.8-4.8l66.2,205.7
			c0.2,0.6,0.8,1,1.4,1c0.1,0,0.3,0,0.4-0.1C637.1,858.1,637.5,857.3,637.1,856.7z M562.7,646c-1.8,0-3.3-0.5-4.1-0.9l0.6-2.2
			c0.7,0.4,2,0.8,3.4,0.8c1.7,0,3.4-1,3.4-2.8c0-1.8-1.3-3-4.4-3c-0.9,0-1.5,0-2.1,0.1l1-7.9h8.1v2.5h-6l-0.5,3.1
			c0.4,0,0.7-0.1,1.1-0.1c1.4,0,2.7,0.3,3.8,1c1.2,0.8,2,2.1,2,4C569,643.5,566.5,646,562.7,646z"/>
		<path id="chaletSchuss" class="st5" d="M401.3,165c-0.6-0.5-1.5-0.3-2,0.3c-17.1,22.9-30.2,46.6-40.5,70.5l-4.4-4.4l-18.2,18.3
			l12.4,12.4c-15.4,44.3-22.5,87.9-28.8,126.1c-6,36.5-10.9,66.9-21.4,87.7l-3.9-3.9l-18.2,18.2l8.6,8.6
			c-17.9,33.4-55.1,56.9-91.2,79.7c-31.9,20.2-62,39.2-77.1,63.8c-2.2,3.5-4.3,7-6.5,10.6c-4.7,7.6-9.5,15.4-14.3,23
			c-0.5,0.6-0.3,1.5,0.4,1.9c0.3,0.1,0.5,0.2,0.8,0.2c0.5,0,0.9-0.3,1.2-0.7c4.9-7.6,9.7-15.5,14.3-23.1c2.2-3.5,4.3-7.1,6.5-10.6
			c14.8-24.1,44.6-42.9,76.2-62.9c36.1-22.8,73.4-46.4,91.8-80l7.5,7.5l18.2-18.3l-12.2-12.2c11-21.1,16-52.1,22.1-89.3
			c6.2-37.7,13.2-80.7,28.3-124.3l3.6,3.6l18.2-18.2L361,237.8c10.2-24,23.4-47.9,40.6-71C402.1,166.2,402,165.3,401.3,165z
			 M296.4,498h-2.9V485h0l-2.9,1.4l-0.5-2.2l3.8-1.9h2.5V498z M355.9,257.5H353v-12.9h0l-2.9,1.4l-0.5-2.2l3.8-1.9h2.5V257.5z"/>
		<path id="chief" class="st5" d="M1094.8,608.9l8.8-8.8l-18.3-18.2l-0.9,0.9c-2.6-6.7-3.2-8.2-7.1-17.4c-0.3-0.8-1.2-1.1-1.9-0.8
			c-0.8,0.4-1.1,1.2-0.8,1.9c4.1,9.7,4.6,10.8,7.6,18.5l-15.2,15.2l18.2,18.2l7.2-7.2c5.5,14.1,13.7,34.8,26,65.8
			c0.2,0.6,0.7,0.9,1.3,0.9c0.2,0,0.3,0,0.5-0.1c0.7-0.3,1.1-1.1,1.1-2C1108.6,643.9,1100.3,623,1094.8,608.9z M1081,608h-2.9v-12.9
			h0l-2.9,1.4l-0.5-2.2l3.8-1.9h2.5V608z M1089.3,608.3c-3.6,0-5.5-2.1-5.5-4.3c0-1.9,1.1-3.3,2.9-4v-0.1c-1.6-0.8-2.4-2.1-2.4-3.5
			c0-2.5,2.3-4.3,5.2-4.3c3.4,0,4.9,2,4.9,3.9c0,1.3-0.7,2.7-2.4,3.5v0.1c1.7,0.7,3,2,3,3.9C1095,606.4,1092.7,608.3,1089.3,608.3z
			 M1089.1,600.9c-1.5,0.4-2.3,1.4-2.3,2.7c0,1.3,1,2.5,2.6,2.5c1.6,0,2.6-1,2.6-2.3C1092,602.3,1090.8,601.4,1089.1,600.9z
			 M1089.7,598.7c1.1-0.3,2-1.2,2-2.4c0-1.1-0.7-2.2-2.2-2.2c-1.5,0-2.3,1-2.3,2.1C1087.1,597.6,1088.2,598.3,1089.7,598.7z"/>
		<path id="challenger" class="st5" d="M1377.2,961.3c-72.6-23.7-120.5-58.2-142.4-102.4c-19.8-39.9-16.2-81.7-7.4-117.5l1.1,1.1
			l18.2-18.2l-11.2-11.2c2.1-6.5,4.2-12.7,6.2-18.4c6.3-18.3,10.9-31.5,8.9-38.5c-3.5-12-18.1-39.5-36.6-74.3
			c-7.3-13.8-14.9-28-22.7-43l-85.4-172.8c-0.3-0.7-1.2-0.9-1.9-0.6s-0.9,1.2-0.6,1.9l85.4,172.8c7.9,15.1,15.5,29.3,22.8,43.1
			c18.4,34.6,33,62,36.3,73.8c1.7,6.1-3,19.6-8.9,36.8c-1.9,5.3-3.8,11-5.8,17l-4.8-4.8l-18.3,18.3l14.8,14.8
			c-2.5,9.7-4.6,20-5.9,30.6c-4.4,34.4-0.1,64,13.1,90.5c22.3,44.9,70.7,79.9,144,103.9c0.1,0.1,0.2,0.1,0.4,0.1
			c0.5,0,1.1-0.4,1.3-1C1378,962.6,1377.6,961.8,1377.2,961.3z M1227.8,717.9h10.5v1.9l-6.6,13.7h-3.1l6.6-13.1v0h-7.3V717.9z
			 M1224.6,733.5h-2.9v-12.9h-0.1l-2.9,1.4l-0.5-2.2l3.8-1.9h2.5V733.5z"/>
		<path id="bugsysRun" class="st5" d="M1447.4,873.7c-7.5-9.6-33.3-44.1-54.6-88.1c-11.1-23-19.1-44.7-24.1-65l10.8-10.8l-15.7-15.7
			c-2.2-19.3-1.3-37.2,2.8-53.5c0.2-0.7-0.2-1.5-1-1.7c-0.7-0.2-1.5,0.2-1.7,1c-4,15.9-5,33.3-3.1,52.1l-17.8,17.8l18.2,18.2
			l5.1-5.1c5.1,20.1,13,41.4,23.9,63.9c21.4,44.3,47.4,79,54.9,88.6c0.3,0.4,0.7,0.6,1.1,0.6c0.3,0,0.6-0.1,0.9-0.3
			C1447.7,875.2,1447.8,874.3,1447.4,873.7z M1357.3,717h-2.8V704h-0.1l-2.9,1.4l-0.5-2.2l3.8-1.9h2.5V717z M1359.8,713v-1.9
			l6.4-9.7h3.5v9.4h2v2.2h-2v4h-2.8v-4H1359.8z M1366.8,706.5c0-0.9,0-1.8,0.1-2.7h-0.1c-0.5,1-0.9,1.8-1.4,2.6l-2.9,4.3l0,0.1h4.3
			V706.5z"/>
	</g>
	<g id="beginner">
		<path id="courierDeBois" class="st6" d="M1385.2,969.2c-59.6,8-149.2,9.2-239.7,3.2c-4.1-0.2-8.2-0.5-12.2-0.8
			c-0.2-7.3-6.1-13.2-13.5-13.2c-6.6,0-12.1,4.7-13.3,11c-71-6.3-127-16.2-153.7-27.5c-0.8-0.3-1.6,0.1-1.9,0.8
			c-0.3,0.8,0.1,1.6,0.8,1.9c26.9,11.4,83.3,21.4,154.4,27.8c0.2,7.3,6.2,13.2,13.5,13.2c6.6,0,12.1-4.7,13.3-11
			c4,0.3,8.1,0.5,12.2,0.8c38.2,2.5,76.2,3.7,111.9,3.7c49.2,0,93.9-2.4,128.5-7c0.8-0.1,1.3-0.8,1.3-1.7
			C1386.7,969.7,1386,969.1,1385.2,969.2z M1116,980.2h-2.9v-12.9h0l-2.9,1.4l-0.5-2.2l3.8-1.9h2.5V980.2z M1127.3,978.2
			c-1.4,1.3-3.2,2-5.3,2.1c-0.7,0.1-1.3,0.1-1.8,0V978c0.5,0,0.9,0,1.6,0c1.2-0.1,2.3-0.5,3.2-1.2c1-0.8,1.7-2,2-3.5l0,0
			c-0.8,0.9-1.9,1.4-3.4,1.4c-2.7,0-4.7-2-4.7-4.8c0-3,2.3-5.6,5.6-5.6c3.6,0,5.6,2.9,5.6,6.7C1130,974.3,1128.9,976.7,1127.3,978.2
			z M1124.3,966.5c-1.5,0-2.6,1.3-2.6,3.2c0,1.6,0.9,2.9,2.6,2.9c1.2,0,2.1-0.6,2.5-1.3c0.1-0.2,0.2-0.4,0.2-0.8
			C1127,968.3,1126.2,966.5,1124.3,966.5z"/>
		<path id="rattlesnake" class="st6" d="M1402.9,986.2c-0.3-0.7-1.1-1.1-1.8-0.8c-14.2,5.5-27.1,10.4-39,14.8
			c-2.3-4.3-6.8-7.3-12-7.3c-7.5,0-13.5,6-13.5,13.5c0,0.9,0.1,1.8,0.3,2.7c-63.4,21.6-99,26.1-176.7,36c-15.2,2-32.5,4.1-51.7,6.7
			c-0.8,0.1-1.3,0.8-1.2,1.6c0.1,0.7,0.7,1.2,1.4,1.2c0.1,0,0.1,0,0.2,0c19.2-2.6,36.4-4.8,51.6-6.7c77.9-9.9,113.7-14.5,177.2-36.1
			c2.1,4.8,6.9,8.1,12.4,8.1c7.5,0,13.5-6,13.5-13.5c0-1.3-0.2-2.5-0.5-3.6c11.9-4.3,24.8-9.2,39-14.8
			C1402.8,987.7,1403.2,986.9,1402.9,986.2z M1350,1013.7h-10.6v-1.8l1.9-1.7c3.7-3.4,5.4-5.3,5.4-7.3c0-1.4-0.7-2.6-2.8-2.6
			c-1.4,0-2.5,0.7-3.3,1.3l-0.9-2.1c1.1-0.9,2.8-1.6,4.8-1.6c3.4,0,5.1,2.2,5.1,4.7c0,2.7-2,5-4.7,7.5l-1.4,1.2v0h6.4V1013.7z
			 M1356.2,1013.9c-3.6,0-5.5-3.3-5.5-8c0-4.8,2.1-8.1,5.7-8.1c3.8,0,5.5,3.4,5.5,8C1361.9,1010.8,1359.9,1013.9,1356.2,1013.9z
			 M1356.3,1000.1c-1.6,0-2.7,1.9-2.7,5.9c0,3.8,1,5.8,2.7,5.8c1.7,0,2.6-2.1,2.6-5.9C1358.9,1002.2,1358.1,1000.1,1356.3,1000.1z"
			/>
		<path id="hareRaiser" class="st6" d="M841.5,346.4c-0.3-0.8-1.1-1.1-1.8-0.8L785,367.9c-1.7-5.6-6.9-9.7-13-9.7
			c-7.4,0-13.5,6-13.5,13.5c0,2.3,0.6,4.4,1.6,6.3l-63.8,26c-0.8,0.3-1.1,1.1-0.8,1.8c0.2,0.6,0.7,0.9,1.3,0.9c0.1,0,0.3,0,0.5-0.1
			l64.3-26.2c2.5,2.9,6.2,4.8,10.3,4.8c7.4,0,13.5-6,13.5-13.5v-1l55.3-22.5C841.5,347.9,841.8,347.1,841.5,346.4z M769,379.1h-2.9
			v-12.9h0l-2.9,1.4l-0.5-2.2l3.8-1.9h2.5V379.1z M776.1,379.3c-3.6,0-5.5-3.3-5.5-8c0-4.9,2.1-8.1,5.7-8.1c3.8,0,5.5,3.4,5.5,8
			C781.8,376.2,779.8,379.3,776.1,379.3z M776.2,365.5c-1.6,0-2.7,1.9-2.7,5.9c0,3.8,1,5.8,2.7,5.8c1.7,0,2.6-2.1,2.6-5.9
			C778.8,367.6,778,365.5,776.2,365.5z"/>
		<path id="hotShot" class="st6" d="M427.3,456.1c-7.8-7.9-14.5-16-20.3-24.3c3.1-2.4,5.1-6.2,5.1-10.5c0-7.4-6-13.5-13.5-13.5
			c-1.8,0-3.5,0.3-5,0.9c-17.2-35.5-19.9-72.1-18.3-100.3c2.6-44.8,16.7-78.8,16.8-79.1c0.3-0.8-0.1-1.6-0.8-1.9
			c-0.8-0.3-1.6,0.1-1.9,0.8c-0.1,0.4-14.3,34.7-17,80c-1.6,26.6,1.1,51.7,7.9,74.6c2.8,9.5,6.4,18.6,10.6,27.3
			c-3.6,2.4-5.9,6.6-5.9,11.2c0,7.4,6,13.5,13.5,13.5c2.2,0,4.3-0.5,6.1-1.4c6.1,8.7,13,17,20.7,24.7c18.1,18.1,25.4,37.2,21.7,56.8
			c-5.3,27.8-31.7,57-80.7,89.4c-40.1,26.6-96.4,55.5-171.8,88.4c-0.7,0.3-1,1.2-0.7,1.9c0.2,0.5,0.8,0.8,1.3,0.8
			c0.2,0,0.4,0,0.6-0.1c75.6-33,132-62,172.3-88.6c49.7-32.8,76.5-62.7,81.9-91.3C453.8,494.9,446.2,474.9,427.3,456.1z M404.2,429
			h-10.6v-1.8l1.8-1.7c3.7-3.4,5.4-5.3,5.4-7.3c0-1.4-0.7-2.6-2.8-2.6c-1.4,0-2.5,0.7-3.3,1.3l-0.9-2.1c1.1-0.9,2.8-1.6,4.8-1.6
			c3.5,0,5.1,2.2,5.1,4.7c0,2.7-2,5-4.7,7.5l-1.4,1.2v0h6.4V429z"/>
		<g id="bunnyHop">
			<path class="st6" d="M695.5,311.6c0,0.4-0.1,0.6-0.2,0.8c-0.5,0.7-1.3,1.3-2.5,1.3c-1.6,0-2.5-1.3-2.6-2.8c0-1.9,1.1-3.2,2.6-3.2
				C694.7,307.7,695.5,309.5,695.5,311.6z"/>
			<path class="st6" d="M698.1,326.1c4.8-2.1,8.2-6.9,8.2-12.5c0-7.4-6-13.5-13.5-13.5c-1,0-2.1,0.2-3.1,0.4
				c-3.7-9.3-7.4-16.5-10.6-22.9c-1.7-3.3-3.3-6.4-4.6-9.4c-0.3-0.7-1.2-1-1.9-0.7c-0.7,0.3-1,1.2-0.7,1.9c1.3,3,2.9,6.2,4.6,9.5
				c3.2,6.3,6.8,13.4,10.4,22.5c-4.6,2.2-7.7,6.8-7.7,12.2c0,7.5,6,13.5,13.5,13.5c0.9,0,1.8,0,2.6-0.2c3.5,13.4,6.9,29.9,9.5,50.8
				c0.1,0.7,0.7,1.2,1.4,1.2c0.1,0,0.1,0,0.2,0c0.8-0.1,1.3-0.8,1.3-1.5C705.1,356.2,701.7,339.6,698.1,326.1z M690.5,321.5
				c-0.7,0.1-1.4,0.1-1.8,0v-2.3c0.5,0.1,0.9,0,1.6,0c1.2-0.1,2.3-0.5,3.2-1.2c1-0.8,1.7-2,2-3.5l0,0c-0.8,0.9-1.9,1.4-3.4,1.4
				c-2.7,0-4.7-2-4.7-4.9c0-3,2.3-5.6,5.6-5.6c3.6,0,5.6,2.9,5.6,6.6c0,3.3-1.1,5.7-2.7,7.3C694.4,320.6,692.5,321.4,690.5,321.5z"
				/>
		</g>
		<g id="littleBear">
			<path class="st6" d="M653,531.8c0-1.1,0.8-2.1,2.3-2.1c1.6,0,2.2,1.1,2.2,2.2c0,1.2-0.9,2-1.9,2.4C654,533.9,653,533.1,653,531.8
				z"/>
			<path class="st6" d="M652.7,539.2c0-1.3,0.8-2.3,2.3-2.7c1.7,0.5,2.9,1.3,2.9,2.9c0,1.3-1,2.3-2.6,2.3
				C653.6,541.7,652.6,540.5,652.7,539.2z"/>
			<path class="st6" d="M753.9,316.6c0-13.1-42.9-41.7-127.5-85c2.4-2.5,3.8-5.8,3.8-9.4c0-7.4-6-13.5-13.5-13.5
				c-6.7,0-12.2,4.8-13.3,11.2c-68.8-34.2-137.4-64.8-149.1-69c-0.7-0.2-1.5,0.2-1.8,0.9c-0.2,0.7,0.2,1.5,0.9,1.8
				c11.8,4.1,80.9,35,149.9,69.4c0.4,7.1,6.3,12.7,13.5,12.7c2.7,0,5.2-0.8,7.3-2.2c110.2,56.3,127.1,76.2,127.1,83
				c0,13.5-24.7,47.2-48.7,79.8c-27.5,37.4-55.9,76.1-54.1,92.7c0.5,5,1.6,12.2,2.9,21.4c0.5,3.9,1.1,8.1,1.8,12.7
				c-6.5,1-11.5,6.6-11.5,13.4c0,7.4,6,13.5,13.5,13.5c0.6,0,1.1,0,1.6-0.1c6.5,51.6,13.1,125.6,5.3,196.7c0,0.8,0.5,1.5,1.3,1.6
				c0.1,0,0.2,0,0.2,0c0.7,0,1.3-0.6,1.4-1.3c7.8-71.5,1.2-145.9-5.4-197.6c5.4-1.8,9.2-6.9,9.2-12.8c0-7.2-5.6-13.1-12.7-13.5
				c-0.7-4.7-1.3-9-1.9-13c-1.3-9.1-2.4-16.3-2.9-21.3c-1.7-15.5,26.3-53.7,53.5-90.7C730.1,363.5,754,330.9,753.9,316.6z
				 M617,230.7c-3.7,0-5.5-2.1-5.5-4.3c0-1.9,1.1-3.3,2.9-4v-0.1c-1.6-0.8-2.4-2.1-2.4-3.5c0-2.5,2.3-4.3,5.2-4.3
				c3.4,0,4.9,2,4.9,3.9c0,1.3-0.7,2.7-2.4,3.5v0.1c1.7,0.7,3,2,3,3.9C622.7,228.8,620.3,230.7,617,230.7z M655.4,527.7
				c3.4,0,4.9,2,4.9,3.9c0,1.3-0.7,2.7-2.4,3.5v0.1c1.7,0.6,3,2,3,3.9c0,2.8-2.4,4.6-5.7,4.6c-3.6,0-5.5-2.1-5.5-4.3
				c0-1.9,1.1-3.3,2.9-4.1v-0.1c-1.6-0.8-2.4-2.1-2.4-3.5C650.2,529.4,652.4,527.7,655.4,527.7z M616.8,223.3
				c-1.5,0.4-2.3,1.4-2.3,2.7c0,1.3,1,2.5,2.6,2.5c1.6,0,2.6-1,2.6-2.3C619.7,224.7,618.5,223.8,616.8,223.3z M617.3,221.1
				c1.1-0.3,2-1.2,2-2.3c0-1.1-0.7-2.2-2.2-2.2c-1.5,0-2.3,1-2.3,2.1C614.8,219.9,615.8,220.7,617.3,221.1z"/>
		</g>
	</g>
	<g id="expert">
		<path id="apache" class="st5" d="M1067.6,752.4l-7.4,7.4c0.7-35.7,2.6-69,8.2-121.4c0-0.8-0.5-1.5-1.3-1.6c-0.8,0-1.5,0.5-1.6,1.3
			c-5.7,53.5-7.6,87.1-8.3,123.6l-9.3-9.3l-19.2,19.3l19.2,19.2l9-9c-0.1,10.8-0.1,22.2-0.2,34.6c-0.1,28.4-0.3,63.7-1.2,110.8
			c0,0.8,0.6,1.5,1.4,1.5c0.7,0,1.4-0.6,1.4-1.4c0.9-47.1,1.1-82.4,1.2-110.8c0-12,0.1-22.9,0.2-33.3l7.7,7.7l19.3-19.2
			L1067.6,752.4z M1056.7,778h-10.6v-1.8l1.8-1.7c3.7-3.4,5.4-5.3,5.4-7.3c0-1.4-0.8-2.6-2.8-2.6c-1.4,0-2.5,0.7-3.3,1.3l-0.9-2.1
			c1.1-0.9,2.8-1.6,4.8-1.6c3.5,0,5.1,2.2,5.1,4.7c0,2.7-2,4.9-4.7,7.5l-1.4,1.2v0.1h6.4V778z M1067.3,774.1v4h-2.8v-4h-7.1v-1.9
			l6.4-9.7h3.5v9.4h2v2.2H1067.3z M1063.1,767.5l-2.9,4.3l0,0h4.2v-4.3c0-0.9,0-1.8,0.1-2.7h-0.1
			C1064,765.9,1063.6,766.7,1063.1,767.5z"/>
		<path id="billsRun" class="st5" d="M1523.5,658.1l-17.3-17.2l-2.2,2.2c-1.5-7.6-3.3-15-5.6-22l-0.1-0.7c3.2-47.9,2.6-83.9-2-113.4
			c-2.8-17.8-7-33.1-12.8-46l14-14l-18.1-18.1l-9.2,9.2l-3.1-3.1c-1.3-1.6-2.7-3.1-4.2-4.5c-20.4-20-49.1-28.2-87.7-25.1
			c-0.8,0-1.4,0.7-1.3,1.5c0,0.8,0.7,1.3,1.5,1.3c36.6-3,64,4.4,83.6,22.6l-16.2,16.2l18.1,18.1l9.2-9.2l9.2,9.2l2-1.9
			c5.4,12.4,9.4,27.2,12.1,44.3c4.6,29.3,5.2,65.2,2,112.9v0.4l0.2,1c0,0.1,0,0.1,0,0.2c2.4,7.5,4.4,15.4,5.9,23.6l-4.2,4.2
			l-8.8-8.8l-17.2,17.2l17.2,17.2l8.8-8.8l7.6,7.6c2.6,43.4-5.3,92.5-23,137.6c-0.3,0.7,0.1,1.5,0.8,1.8c0.2,0.1,0.3,0.1,0.5,0.1
			c0.5,0,1.1-0.3,1.3-0.9c17.9-45.6,25.8-95.2,23.1-139.1L1523.5,658.1z M1470.5,454.2h-10.6v-1.8l1.9-1.7c3.7-3.4,5.4-5.3,5.4-7.3
			c0-1.4-0.7-2.6-2.8-2.6c-1.4,0-2.5,0.7-3.3,1.3l-0.9-2.1c1.1-0.9,2.8-1.6,4.8-1.6c3.4,0,5.1,2.2,5.1,4.7c0,2.7-2,4.9-4.7,7.5
			l-1.4,1.2v0h6.4V454.2z M1482.4,454.2h-10.6v-1.8l1.8-1.7c3.7-3.4,5.4-5.3,5.4-7.3c0-1.4-0.8-2.6-2.8-2.6c-1.4,0-2.5,0.7-3.3,1.3
			l-0.9-2.1c1.1-0.9,2.8-1.6,4.8-1.6c3.5,0,5.1,2.2,5.1,4.7c0,2.7-2,4.9-4.7,7.5l-1.4,1.2v0h6.4V454.2z M1497,665.3h-10.6v-1.8
			l1.8-1.7c3.7-3.4,5.4-5.3,5.4-7.4c0-1.4-0.7-2.6-2.8-2.6c-1.4,0-2.5,0.7-3.3,1.3l-0.9-2.1c1.1-0.9,2.8-1.6,4.8-1.6
			c3.4,0,5.1,2.2,5.1,4.7c0,2.7-2,5-4.7,7.5l-1.4,1.2v0h6.4V665.3z M1498.3,665.3v-1.8l1.8-1.7c3.7-3.4,5.4-5.3,5.4-7.4
			c0-1.4-0.8-2.6-2.8-2.6c-1.4,0-2.5,0.7-3.3,1.3l-0.9-2.1c1.1-0.9,2.8-1.6,4.8-1.6c3.5,0,5.1,2.2,5.1,4.7c0,2.7-2,5-4.7,7.5
			l-1.4,1.2v0h6.4v2.5H1498.3z"/>
	</g>
	<g id="terrainParkAdvanced">
		<g id="terrainPark">
			<path class="st5" d="M924.7,1075.7l-142.5-19.4l0.2-0.2l-18.3-18.2L750,1052l-70.1-9.5v-5.7h-16.7v3.4l-47.5-6.5
				c-0.8-0.1-1.5,0.4-1.6,1.2c-0.1,0.8,0.4,1.5,1.2,1.6l47.9,6.5v5.2H680v-2.9l67.5,9.2l-1.6,1.6l18.2,18.2l15.5-15.5l144.6,19.7
				c0.1,0,0.1,0,0.2,0c0.7,0,1.3-0.5,1.4-1.2C926,1076.5,925.5,1075.8,924.7,1075.7z M679,1042.4c0.1,1-0.3,1.9-0.9,2.6
				c-1.3,1.5-3.7,2.5-6.4,2.5c-3.7,0-6.8-1.9-7.3-4.4c-0.1-0.2-0.1-0.5-0.1-0.7c0-0.7,0.2-1.4,0.6-2.1c1.1-1.8,3.7-3,6.7-3
				C675.6,1037.3,678.9,1039.5,679,1042.4L679,1042.4z M764.4,1062.9h-9.9v-1.7l1.7-1.6c3.4-3.2,5-4.9,5-6.8c0-1.3-0.7-2.4-2.6-2.4
				c-1.3,0-2.4,0.7-3.1,1.2l-0.8-2c1.1-0.8,2.6-1.5,4.5-1.5c3.2,0,4.8,2,4.8,4.4c0,2.5-1.8,4.6-4.4,6.9l-1.3,1.1v0h6V1062.9z
				 M769.2,1063.2c-1.8,0-3.3-0.5-4.1-1l0.6-2.1c0.6,0.3,1.9,0.9,3.3,0.9c2.1,0,3-1.2,2.9-2.3c0-1.7-1.6-2.5-3.3-2.5h-1.3v-2h1.2
				c1.3,0,2.9-0.6,2.9-2c0-1-0.7-1.8-2.3-1.8c-1.2,0-2.4,0.5-3,0.9l-0.6-2c0.8-0.6,2.4-1.1,4.2-1.1c3,0,4.5,1.7,4.5,3.6
				c0,1.5-0.9,2.8-2.7,3.4v0c1.8,0.3,3.2,1.7,3.2,3.6C774.8,1061.2,772.8,1063.2,769.2,1063.2z"/>
			<path class="st7" d="M678.4,1042.4c0,0.9-0.4,1.8-1.1,2.5c-1.2,1.2-3.3,2-5.6,2c-3.3,0-6.1-1.6-6.6-3.7c-0.1-0.3-0.1-0.5-0.1-0.8
				c0-0.7,0.3-1.4,0.7-2c1.1-1.5,3.4-2.5,6-2.5c3.6,0,6.6,1.9,6.7,4.2C678.4,1042.3,678.4,1042.4,678.4,1042.4z"/>
		</g>
		<g id="chooChooTerrain">
			<path class="st5" d="M394,628.1c-0.5-0.6-1.5-0.6-2,0l-28.8,28.8h-9.9v9.9L330.2,690l-7.9-7.9L304,700.3l7.9,7.9l-45.3,45.4
				c-0.6,0.6-0.6,1.5,0,2c0.3,0.3,0.6,0.4,1,0.4c0.4,0,0.7-0.1,1-0.4l45.3-45.4l8.4,8.4l18.2-18.3l-8.4-8.4l23.6-23.6H370v-11.5
				h-2.8L394,630C394.6,629.5,394.6,628.7,394,628.1z M321.3,707.4h-9.9v-1.7l1.7-1.6c3.4-3.2,5-4.9,5.1-6.9c0-1.3-0.7-2.4-2.6-2.4
				c-1.3,0-2.4,0.6-3.1,1.2l-0.8-2c1.1-0.8,2.7-1.5,4.5-1.5c3.2,0,4.8,2,4.8,4.4c0,2.5-1.8,4.6-4.4,7l-1.3,1.1v0h6V707.4z
				 M332.3,702.6c0,2.8-2.3,5-5.9,5c-1.7,0-3.1-0.4-3.9-0.8l0.6-2.1c0.6,0.3,1.9,0.8,3.2,0.8c1.6,0,3.2-0.9,3.2-2.7
				c0-1.7-1.2-2.8-4.2-2.8c-0.8,0-1.4,0-2,0.1l1-7.4h7.5v2.3h-5.6l-0.4,2.9c0.3,0,0.6-0.1,1.1-0.1c1.3,0,2.5,0.3,3.5,0.9
				C331.5,699.6,332.3,700.8,332.3,702.6z M369,662.7c0,2.8-3.3,5.1-7.4,5.1c-1.6,0-3.1-0.4-4.3-1c-0.9-0.5-1.7-1.1-2.2-1.8
				s-0.8-1.5-0.8-2.4c0-2.8,3.3-5.1,7.4-5.1h0.9c1.2,0.1,2.3,0.4,3.2,0.8C367.7,659.3,369,660.9,369,662.7z"/>
			<path class="st7" d="M368.4,662.7c0,2.5-3,4.5-6.8,4.5c-1.4,0-2.8-0.3-3.8-0.8c-1-0.4-1.7-1-2.2-1.8c-0.4-0.6-0.7-1.2-0.7-1.9
				c0-2.5,3-4.5,6.7-4.5c0.1,0,0.2,0,0.3,0c1.2,0,2.4,0.3,3.3,0.7C367.1,659.7,368.4,661.1,368.4,662.7z"/>
		</g>
		<g id="dropZone">
			<path class="st5" d="M701.7,936.6c-21.3-2.9-83.3-18.4-151.1-36.9l2.3-2.3l-18.3-18.2L522,891.7c-31.8-8.9-63.8-18.2-92.5-26.8
				v-8.3h-16.7v3.1c-45.6-14-80.1-25.9-87.5-31.3c-0.6-0.5-1.5-0.3-2,0.3c-0.5,0.6-0.3,1.5,0.3,2c7.5,5.4,42.8,17.5,89.2,31.8v5.5
				h16.7v-0.4c28.1,8.5,59.2,17.5,90.2,26.2l-3.4,3.4l18.2,18.3l13.7-13.7c68.6,18.8,131.5,34.6,153,37.5c0.1,0,0.1,0,0.2,0
				c0.7,0,1.3-0.5,1.4-1.2C703,937.4,702.5,936.7,701.7,936.6z M427.9,864.4c-0.5,0.9-1.4,1.6-2.5,2.1c-1.2,0.6-2.7,1-4.3,1
				c-3.8,0-6.9-2-7.3-4.5c0-0.2-0.1-0.4-0.1-0.6c0-0.8,0.2-1.5,0.7-2.1c1.2-1.8,3.8-3,6.7-3c4.1,0,7.4,2.3,7.4,5.1
				C428.5,863.1,428.3,863.8,427.9,864.4z M535.9,904.4h-10.6v-1.8l1.8-1.7c3.7-3.4,5.4-5.3,5.4-7.3c0-1.4-0.7-2.6-2.8-2.6
				c-1.4,0-2.5,0.7-3.3,1.3l-0.9-2.1c1.1-0.9,2.8-1.6,4.8-1.6c3.5,0,5.1,2.2,5.1,4.7c0,2.7-2,4.9-4.7,7.5l-1.4,1.2v0h6.4V904.4z
				 M543.2,904.4h-2.8v-12.9h0l-2.9,1.4l-0.5-2.2l3.8-1.9h2.5V904.4z"/>
			<path class="st7" d="M427.9,862.4c0,0.7-0.2,1.3-0.6,1.8c-0.6,0.9-1.5,1.6-2.8,2l0,0c-1,0.4-2.1,0.6-3.4,0.6
				c-3.3,0-6.1-1.6-6.6-3.7c-0.1-0.3-0.1-0.5-0.1-0.8c0-0.7,0.2-1.3,0.6-1.9c1.1-1.5,3.4-2.6,6.1-2.6
				C424.9,857.9,427.9,859.9,427.9,862.4z"/>
		</g>
	</g>
	<path id="snowCrossTBD" class="st7" d="M681.9,914.5c-84.3-20.7-136.7-36.9-150-106.4c-7.5-39.3-21.1-80.6-37.9-117.1h8.7v-29
		h-23.2c-7.3-13.2-14.9-25.3-22.8-35.9c-23.3-31.4-11.3-58.1-0.8-81.7c2.7-6.1,5.2-11.8,7.1-17.3l0.6-1.8c8.8-26.2,14.1-42-17.3-87
		c-6.9-10-13.7-17.9-20.3-25.5c-21.9-25.6-39.2-45.7-39.4-118.9c-0.1-40.6,39.9-122.8,40.3-123.6c0.5-1,0.1-2.2-0.9-2.7
		s-2.2-0.1-2.7,0.9c-1.7,3.4-40.8,83.8-40.7,125.4c0.1,74.7,17.8,95.4,40.3,121.5c6.5,7.6,13.2,15.4,20,25.2
		c30.2,43.4,25.4,57.7,16.8,83.5l-0.6,1.8c-1.7,5.3-4.2,11-6.9,16.9c-10.5,23.3-23.5,52.4,1.2,85.7c7.3,9.9,14.5,21.2,21.4,33.5
		h-1.2v29h16c17,36.6,30.8,78.3,38.4,117.9c13.8,71.9,67.1,88.5,153,109.6c0.2,0.1,0.3,0.1,0.5,0.1c0.9,0,1.7-0.6,1.9-1.5
		C683.7,916,683,914.9,681.9,914.5z M488.1,684.1h-10.6v-1.8l1.9-1.7c3.7-3.4,5.4-5.3,5.4-7.3c0-1.4-0.8-2.6-2.8-2.6
		c-1.4,0-2.5,0.7-3.3,1.3l-0.9-2.1c1.1-0.9,2.8-1.6,4.8-1.6c3.5,0,5.1,2.2,5.1,4.7c0,2.7-2,5-4.7,7.5l-1.4,1.2v0h6.4V684.1z
		 M490.4,684.1L497,671v0h-7.3v-2.5h10.5v1.9l-6.6,13.7H490.4z"/>
</g>
<g id="chaletIcons">
	<g id="chalet">
		<polygon class="st8" points="138.3,742.1 163.4,733 163.4,743.2 138.3,752.4 		"/>
		<polygon class="st8" points="128.2,746.9 138.3,752.4 138.3,742.1 128.2,736.7 		"/>
		<polygon class="st8" points="158.4,723.3 163.4,733 138.3,742.1 133.2,732.5 		"/>
		<polygon class="st8" points="133.2,732.5 138.3,742.1 128.2,736.7 		"/>
		<polygon class="st8" points="130.7,746.2 135.2,748.6 135.2,742.3 130.7,739.8 		"/>
		<polygon class="st8" points="130.7,746.2 130.7,739.8 132.2,740.7 132.2,745.4 135.2,747.1 135.2,748.6 		"/>
		<polygon class="st8" points="144,742.2 148.9,740.4 148.9,746.7 144,748.5 		"/>
		<polygon class="st8" points="147.3,740.9 148.9,740.4 148.9,746.7 144,748.5 144,747 147.3,745.7 		"/>
		<polygon class="st8" points="154.3,738.4 159.2,736.6 159.2,743 154.3,744.8 		"/>
		<polygon class="st8" points="157.7,737.2 159.2,736.6 159.2,743 154.3,744.8 154.3,743.2 157.7,742 		"/>
		<polygon class="st9" points="138.3,742.1 163.4,733 163.4,743.2 138.3,752.4 		"/>
		<polygon class="st10" points="128.2,746.9 138.3,752.4 138.3,742.1 128.2,736.7 		"/>
		<polygon class="st11" points="158.4,723.3 163.4,733 138.3,742.1 133.2,732.5 		"/>
		<polygon class="st12" points="133.2,732.5 138.3,742.1 128.2,736.7 		"/>
		<polygon class="st13" points="130.7,746.2 135.2,748.6 135.2,742.3 130.7,739.8 		"/>
		<polygon class="st9" points="130.7,746.2 130.7,739.8 132.2,740.7 132.2,745.4 135.2,747.1 135.2,748.6 		"/>
		<polygon class="st14" points="144,742.2 148.9,740.4 148.9,746.7 144,748.5 		"/>
		<polygon class="st13" points="147.3,740.9 148.9,740.4 148.9,746.7 144,748.5 144,747 147.3,745.7 		"/>
		<polygon class="st14" points="154.3,738.4 159.2,736.6 159.2,743 154.3,744.8 		"/>
		<polygon class="st13" points="157.7,737.2 159.2,736.6 159.2,743 154.3,744.8 154.3,743.2 157.7,742 		"/>
		<polygon class="st8" points="113.2,751.3 138.3,742.1 138.3,752.4 113.2,761.5 		"/>
		<polygon class="st8" points="103.1,756 113.2,761.5 113.2,751.3 103.1,745.8 		"/>
		<polygon class="st8" points="133.2,732.5 138.3,742.1 113.2,751.3 108.1,741.6 		"/>
		<polygon class="st8" points="108.1,741.6 113.2,751.3 103.1,745.8 		"/>
		<polygon class="st8" points="105.6,755.3 110.1,757.7 110.1,751.4 105.6,749 		"/>
		<polygon class="st8" points="105.6,755.3 105.6,749 107.1,749.8 107.1,754.6 110.1,756.2 110.1,757.7 		"/>
		<polygon class="st8" points="118.8,751.3 123.8,749.5 123.8,755.9 118.8,757.7 		"/>
		<polygon class="st8" points="122.2,750.1 123.8,749.5 123.8,755.9 118.8,757.7 118.8,756.1 122.2,754.9 		"/>
		<polygon class="st8" points="129.2,747.6 134.1,745.8 134.1,752.1 129.2,753.9 		"/>
		<polygon class="st8" points="132.5,746.3 134.1,745.8 134.1,752.1 129.2,753.9 129.2,752.4 132.5,751.1 		"/>
		<polygon class="st9" points="113.2,751.3 138.3,742.1 138.3,752.4 113.2,761.5 		"/>
		<polygon class="st10" points="103.1,756 113.2,761.5 113.2,751.3 103.1,745.8 		"/>
		<polygon class="st11" points="133.2,732.5 138.3,742.1 113.2,751.3 108.1,741.6 		"/>
		<polygon class="st12" points="108.1,741.6 113.2,751.3 103.1,745.8 		"/>
		<polygon class="st13" points="105.6,755.3 110.1,757.7 110.1,751.4 105.6,749 		"/>
		<polygon class="st9" points="105.6,755.3 105.6,749 107.1,749.8 107.1,754.6 110.1,756.2 110.1,757.7 		"/>
		<polygon class="st14" points="118.8,751.3 123.8,749.5 123.8,755.9 118.8,757.7 		"/>
		<polygon class="st13" points="122.2,750.1 123.8,749.5 123.8,755.9 118.8,757.7 118.8,756.1 122.2,754.9 		"/>
		<polygon class="st14" points="129.2,747.6 134.1,745.8 134.1,752.1 129.2,753.9 		"/>
		<polygon class="st13" points="132.5,746.3 134.1,745.8 134.1,752.1 129.2,753.9 129.2,752.4 132.5,751.1 		"/>
		<polygon class="st8" points="148.4,765.1 173.5,756 173.5,766.2 148.4,775.4 		"/>
		<polygon class="st8" points="138.3,769.9 148.4,775.4 148.4,765.1 138.3,759.6 		"/>
		<polygon class="st8" points="168.5,746.3 173.5,756 148.4,765.1 143.3,755.5 		"/>
		<polygon class="st8" points="143.3,755.5 148.4,765.1 138.3,759.6 		"/>
		<polygon class="st8" points="140.8,769.1 145.3,771.6 145.3,765.2 140.8,762.8 		"/>
		<polygon class="st8" points="140.8,769.1 140.8,762.8 142.3,763.6 142.3,768.4 145.3,770 145.3,771.6 		"/>
		<polygon class="st8" points="154.1,765.2 159,763.4 159,769.7 154.1,771.5 		"/>
		<polygon class="st8" points="157.4,763.9 159,763.4 159,769.7 154.1,771.5 154.1,769.9 157.4,768.7 		"/>
		<polygon class="st8" points="164.4,761.4 169.3,759.6 169.3,765.9 164.4,767.7 		"/>
		<polygon class="st8" points="167.8,760.2 169.3,759.6 169.3,765.9 164.4,767.7 164.4,766.2 167.8,765 		"/>
		<polygon class="st9" points="148.4,765.1 173.5,756 173.5,766.2 148.4,775.4 		"/>
		<polygon class="st10" points="138.3,769.9 148.4,775.4 148.4,765.1 138.3,759.6 		"/>
		<polygon class="st11" points="168.5,746.3 173.5,756 148.4,765.1 143.3,755.5 		"/>
		<polygon class="st12" points="143.3,755.5 148.4,765.1 138.3,759.6 		"/>
		<polygon class="st13" points="140.8,769.1 145.3,771.6 145.3,765.2 140.8,762.8 		"/>
		<polygon class="st9" points="140.8,769.1 140.8,762.8 142.3,763.6 142.3,768.4 145.3,770 145.3,771.6 		"/>
		<polygon class="st14" points="154.1,765.2 159,763.4 159,769.7 154.1,771.5 		"/>
		<polygon class="st13" points="157.4,763.9 159,763.4 159,769.7 154.1,771.5 154.1,769.9 157.4,768.7 		"/>
		<polygon class="st14" points="164.4,761.4 169.3,759.6 169.3,765.9 164.4,767.7 		"/>
		<polygon class="st13" points="167.8,760.2 169.3,759.6 169.3,765.9 164.4,767.7 164.4,766.2 167.8,765 		"/>
	</g>
	<g id="firstAid">
		<rect x="168.7" y="759.6" class="st3" width="30.8" height="28.8"/>
		<polygon class="st2" points="197,770.6 197,777.5 188.6,777.5 188.6,785.3 181.3,785.3 181.3,777.5 172.9,777.5 172.9,770.6 
			181.3,770.6 181.3,762.7 188.6,762.7 188.6,770.6 		"/>
	</g>
	<g id="skiRentalAndRepair">
		<rect x="272.5" y="759.6" class="st5" width="30.8" height="28.8"/>
		<g>
			<path class="st12" d="M278.1,771l-2.2,1.2c0,0-0.1,0.5,0.5,1.1l2.3-1c0,0,1.1,2.6,2.1,2.1c0.8-0.4,0.2-3.1,0.2-3.1l2.7-1.4
				c0,0,0.1,1.7,0.3,2.3l-2,1.2c0,0-0.2,0.7,0.6,1.2l1.9-0.9c0,0,1,2.8,2.1,2.2c0.9-0.5,0.3-3.3,0.3-3.3l14-7.4v-1.7l-14.6,7.7
				c0,0-1-1.6-1.4-1.8l15.6-8.2h-2.8l-17.3,8.6c0,0-1.2-2.3-2.2-1.7C277.2,768.6,278.1,771,278.1,771"/>
			<path class="st12" d="M294.7,775l-4.5-1c0,0-1.7-0.3-1.8,0.7c-0.1,0.6-0.2,2.3-0.2,2.3l2.3,0.9c0,0,0.4-0.9,0.8-0.7
				c0.6,0.2,0.4,1.2,0.4,1.2s1.3,0.2,1.1,0.7c-0.2,0.7-1.4,0.2-1.4,0.2s-0.4,0.7-0.8,0.6c-0.4-0.2-0.4-0.9-0.4-0.9l-2.4-1l-0.7,2.3
				l2.3,0.9c0,0,0.3-0.6,0.7-0.6c0.4,0,0.3,1,0.3,1s1.4,0.6,1.3,1c-0.2,0.6-1.6,0.2-1.6,0.2s-0.5,0.8-0.9,0.7s-0.3-1.1-0.3-1.1
				l-2.7-1.3c0,0-3.4,0.3-4.1,0.5c-1.1,0.4-1.8,1.3-1.8,2c0.1,0.7,0.1,1,0.1,1h16.1l-0.5-8.3C295.8,776.4,295.5,775.2,294.7,775"/>
			<path class="st12" d="M295.8,786.7c0.3,0,0.6-0.3,0.6-0.6c0-0.4-0.3-0.6-0.6-0.6h-15.1c-0.3,0-0.6,0.3-0.6,0.6s0.3,0.6,0.6,0.6
				H295.8z"/>
		</g>
	</g>
	<g id="ticketOffice">
		<rect x="203.7" y="794.2" class="st5" width="30.8" height="28.8"/>
		<path class="st12" d="M229.9,798c0-1.3-1.2-1.5-1.2-1.5s-6.3-0.2-7.3-0.2s-1.8,0.8-1.8,0.8s-9.9,11.3-11,12.6
			c-1.1,1.2-0.4,2.5-0.4,2.5s6.5,7.3,7.3,8.3s2-0.2,2-0.2s11-12.2,11.7-13.2s0.7-2,0.7-2S229.9,799.3,229.9,798z M220.6,814.3
			l-5.4-6l-1.6,1.8l-1.4-1.8l6.1-6.9l1.5,1.8l-1.5,2l5.1,6L220.6,814.3z M226.9,801c-0.7,0-1.3-0.6-1.3-1.4c0-0.8,0.6-1.4,1.3-1.4
			s1.2,0.6,1.2,1.4C228.2,800.4,227.6,801,226.9,801z"/>
	</g>
	<g id="cafeteria">
		<path class="st5" d="M238.5,759.6v28.8h30.8v-28.8H238.5z M251.5,771.9h-0.2v12.4c0,0.7-0.5,1.3-1.2,1.3s-1.2-0.6-1.2-1.3v-12.4
			h-0.6c-1.2,0-1.5-0.5-1.5-1.2l0,0c0-0.2,0-0.3,0-0.5v-6.8c0-0.4,0.3-0.8,0.8-0.8c0.4,0,0.8,0.4,0.8,0.8v5.5h0.9v-5.5
			c0-0.4,0.3-0.8,0.8-0.8c0.4,0,0.8,0.4,0.8,0.8v5.5h0.9v-5.5c0-0.4,0.3-0.8,0.7-0.8s0.8,0.4,0.8,0.8v6.5c0,0.1,0,0.1,0,0.2
			C253,771.1,252.9,772,251.5,771.9z"/>
		<g>
			<path class="st5" d="M250.4,768.9h0.2v0.1C250.6,769,250.5,769,250.4,768.9z"/>
			<g>
				<path class="st12" d="M260.3,785.7c1.1,0,1.3-1,1.3-2.3v-19c0-1.2-0.9-2.3-2.1-2.3c-1.1,0-2.1,1-2.1,2.3v7.8
					c0,1.5,1.6,2.9,1.6,2.9v9.2C259,784.4,259.5,785.7,260.3,785.7L260.3,785.7z"/>
				<path class="st12" d="M253,770.2c0,0.9-0.1,1.8-1.6,1.7h-0.2v12.4c0,0.7-0.5,1.3-1.2,1.3s-1.2-0.6-1.2-1.3v-12.4h-0.6
					c-1.2,0-1.5-0.5-1.5-1.2l0,0c0-0.2,0-0.3,0-0.5v-6.8c0-0.4,0.3-0.8,0.8-0.8c0.4,0,0.8,0.4,0.8,0.8v5.5h0.9v-5.5
					c0-0.4,0.3-0.8,0.8-0.8c0.4,0,0.8,0.4,0.8,0.8v5.5h-0.2c0.1,0,0.1,0,0.2,0.1v-0.1h0.9v-5.5c0-0.4,0.3-0.8,0.7-0.8
					s0.8,0.4,0.8,0.8v6.5C253,770,253,770.1,253,770.2z"/>
			</g>
			<path class="st12" d="M246.8,770.7c0-0.1,0-0.1,0-0.2v-0.3C246.8,770.4,246.8,770.5,246.8,770.7z"/>
			<path class="st12" d="M250.6,768.9L250.6,768.9c-0.1,0-0.1,0-0.2,0H250.6z"/>
			<path class="st12" d="M250.6,768.9L250.6,768.9c-0.1,0-0.1,0-0.2,0H250.6z"/>
		</g>
	</g>
	<g id="skiPatrol">
		<rect x="168.7" y="794.2" class="st3" width="30.8" height="28.8"/>
		<polygon class="st2" points="197.7,810.5 184.2,797 170.7,810.5 173.7,810.5 173.7,816.7 175.9,816.7 175.9,810.1 184.2,801.8 
			192,809.6 192,816.7 194.2,816.7 194.2,810.5 		"/>
		<polygon class="st2" points="189.1,814.1 185.6,814.1 185.6,810.6 182.6,810.6 182.6,814.1 179.1,814.1 179.1,817.2 182.6,817.2 
			182.6,820.6 185.6,820.6 185.6,817.2 189.1,817.2 		"/>
	</g>
	<g id="skiSchool">
		<rect x="238.5" y="794.2" class="st5" width="30.8" height="28.8"/>
		<path class="st12" d="M242.7,796.5c-0.1,0.1-0.2,0.2-0.2,0.2l-1.8,1.8l0.1,11.7c0-0.1,2.5,3.3,2.8,3.8c2.4-0.4,5.5-1.9,8.4-4.2
			s5.2-4.9,6.3-7.2c-0.2-0.3-2.9-3.9-2.9-3.9c-0.6-0.9-1.4-1.6-2.3-2.2C253.1,796.4,242.9,796.5,242.7,796.5 M259.3,803
			c-1.2,2.5-3.6,5.3-6.6,7.6s-6.3,4-9,4.4c-0.2,0.6-0.5,1.3-0.5,2c0,0.5,0.1,0.9,0.4,1.3c0.3,0.4,0.8,0.7,1.5,0.8
			c2.5,0.4,6.7-1.4,10.5-4.4c5.1-3.9,8.1-8.9,6.7-10.9C261.7,802.9,260.4,802.9,259.3,803 M247.8,820.1c0.7,0.9,2,1.1,2.9,0.4
			c0.5-0.4,0.8-1.1,0.8-1.7C250.2,819.4,248.9,819.8,247.8,820.1"/>
	</g>
	<g id="childMind">
		<rect x="203.7" y="759.6" class="st5" width="30.8" height="28.8"/>
		<g>
			<g>
				<path class="st5" d="M221.8,769.6c0,0.1-0.1,0.2-0.1,0.3s-0.1,0.2-0.2,0.2l0,0c-0.1,0.1-0.2,0.2-0.3,0.2
					c-0.3,0.1-0.6,0.2-0.9,0.2h-0.1l-0.1,0.6l-0.1,0.4c0,0.1,0.1,0.1,0.1,0.2l0.1,0.1c0,0,0.1,0.1,0.2,0.1c0.1,0,0.2,0,0.4,0
					l0.1,0.3l0.1,0.3c-0.2,0-0.3,0.1-0.4,0.1c-0.3,0-0.5-0.1-0.7-0.2c-0.1-0.1-0.2-0.2-0.3-0.3c-0.1,0.1-0.2,0.2-0.4,0.2
					c-0.1,0-0.2,0-0.3,0c-0.2,0-0.5-0.1-0.7-0.2l0.2-0.3l0.1-0.3c0.1,0.1,0.3,0.1,0.4,0.1c0.1,0,0.3,0,0.3-0.1
					c0.1,0,0.1-0.1,0.2-0.1l0,0l0.1-0.5l0.1-0.5c-0.3-0.1-0.5-0.2-0.7-0.3c-0.1-0.1-0.2-0.2-0.2-0.2l0,0c-0.1-0.1-0.1-0.2-0.1-0.3
					s0-0.3,0-0.4c0.1-0.6,0.9-1,1.8-0.9c0.5,0.1,1,0.3,1.3,0.7C221.8,769.1,221.9,769.3,221.8,769.6z"/>
				<path class="st12" d="M227.9,766.4c0,0.2,0,0.3,0,0.5c-0.2,1-1,1.8-1.9,2c0.2-1.3-0.1-2.5-0.9-3.6c-0.2-0.2-0.3-0.4-0.5-0.6
					c0.4-0.2,0.8-0.3,1.2-0.3c0.1,0,0.2,0,0.3,0c0.6,0.1,1.1,0.4,1.5,0.9C227.8,765.5,227.9,766,227.9,766.4z"/>
				<path class="st12" d="M218.1,763.6c-1.5,0.7-2.7,2-3.2,3.5c-0.2-0.1-0.5-0.3-0.6-0.6c-0.3-0.5-0.5-1.1-0.4-1.7
					c0.2-1.2,1.3-2.1,2.5-2.1c0.1,0,0.2,0,0.3,0C217.2,762.9,217.7,763.2,218.1,763.6z"/>
				<path class="st12" d="M223.8,778.3c-1.5,0.3-2.7,1.5-3,2.9c0,0.3-0.1,0.5,0,0.8c-1,0.3-2,0.4-3.1,0.3c-0.6-0.1-1.1-0.2-1.6-0.4
					c0.1-0.1,0.1-0.3,0.1-0.4c0.2-0.9,0-1.8-0.5-2.5c-0.5-0.8-1.4-1.2-2.3-1.4c-0.3,0-0.6,0-0.8,0c-0.1-0.7-0.1-1.5,0-2.2
					c0,0,0,0,0-0.1h0.1c0.1,0,0.3,0,0.4,0c1.5,0,2.9-1.1,3.1-2.5c0-0.2,0-0.3,0-0.5c0.4,0.4,0.8,0.6,1.3,0.9
					c0.5,0.3,1.1,0.5,1.8,0.5c0.3,0,0.5,0,0.8,0c0.4,0,0.9,0,1.3-0.1c1.1-0.2,2-0.8,2.8-1.5c0.1,0.1,0.2,0.2,0.3,0.3
					c0.1,0.2,0.2,0.3,0.3,0.5c-1.1,0.3-2,1.2-2.2,2.4c-0.1,0.8,0,1.5,0.5,2.1C223.2,777.9,223.5,778.1,223.8,778.3z"/>
				<path class="st12" d="M228,776.1c-0.2,1.1-1.2,1.9-2.3,2c-0.1,0-0.2,0-0.3,0s-0.2,0-0.3,0l0,0c-0.7-0.1-1.2-0.4-1.6-0.9
					c-0.3-0.5-0.5-1.1-0.4-1.7c0.2-1,1-1.7,1.9-2c0.1,0,0.2,0,0.3,0s0.2,0,0.3,0s0.2,0,0.4,0c0.7,0.1,1.2,0.4,1.6,0.9
					C228,774.9,228.1,775.5,228,776.1z"/>
				<path class="st12" d="M215.7,780.8c0,0.2,0,0.4,0,0.5s0,0.2-0.1,0.3c0,0.1-0.1,0.2-0.1,0.3s-0.1,0.2-0.1,0.3
					c-0.6,1.1-1.9,1.8-3.2,1.6c-0.8-0.1-1.5-0.5-2-1.1c-0.4-0.6-0.6-1.3-0.4-2c0.2-1.2,1.2-2.1,2.3-2.3c0.1,0,0.2,0,0.3-0.1
					c0.1,0,0.2,0,0.3,0s0.1,0,0.2,0c0.1,0,0.3,0,0.4,0c0.8,0.1,1.5,0.5,1.9,1.1C215.6,779.8,215.7,780.3,215.7,780.8z"/>
				<path class="st12" d="M215.7,772.3c0,0.1,0,0.3,0,0.4c-0.3,1.3-1.5,2.2-2.9,2c0,0,0,0-0.1,0s-0.2,0-0.3-0.1
					c-0.1,0-0.2-0.1-0.3-0.1c-0.4-0.2-0.7-0.4-1-0.8c-0.4-0.5-0.5-1.1-0.4-1.7c0.2-1.2,1.3-2,2.6-2c0.1,0,0.2,0,0.3,0
					c0.5,0.1,1,0.3,1.3,0.6c0,0.1,0.1,0.1,0.2,0.2l0,0l0,0c0,0.1,0.1,0.2,0.2,0.3c0.1,0.1,0.1,0.2,0.2,0.3l0,0
					C215.7,771.8,215.7,772.1,215.7,772.3z"/>
				<path class="st5" d="M224.3,768c0,0.2-0.1,0.4-0.2,0.5c0,0.1-0.1,0.2-0.1,0.3c-0.1,0.1-0.1,0.2-0.2,0.2c-0.1,0-0.2,0.1-0.3,0.1
					c0,0,0,0-0.1,0s-0.2-0.1-0.3-0.2c-0.1-0.2-0.2-0.5-0.2-0.9c0,0,0-0.1,0-0.2c0-0.1,0-0.2,0.1-0.3c0.1-0.2,0.1-0.3,0.2-0.4
					c0.2-0.2,0.3-0.3,0.6-0.3c0.1,0,0.3,0.1,0.3,0.2C224.4,767.1,224.4,767.5,224.3,768z"/>
				<path class="st5" d="M218.4,766.9c0,0.1,0,0.2,0,0.3c-0.1,0.5-0.4,1.1-0.8,1.1h-0.1c-0.1,0-0.2-0.1-0.3-0.2c0,0-0.1-0.1-0.1-0.2
					c0-0.1-0.1-0.2-0.1-0.3s0-0.2,0-0.3s0-0.2,0-0.3c0.1-0.5,0.4-1.1,0.9-1c0.1,0,0.3,0.1,0.3,0.2l0,0c0.1,0.1,0.1,0.2,0.1,0.3
					C218.4,766.6,218.4,766.8,218.4,766.9z"/>
				<path class="st12" d="M224.6,765.6c-0.2-0.2-0.4-0.4-0.5-0.6c-0.1-0.1-0.2-0.1-0.2-0.2c-0.1-0.1-0.1-0.1-0.2-0.2
					c-0.7-0.5-1.5-0.8-2.3-0.9c-0.2,0-0.5,0-0.7,0c-0.6,0-1.2,0.1-1.7,0.3c-0.1,0-0.2,0.1-0.3,0.1s-0.2,0.1-0.3,0.1
					c-1.4,0.6-2.5,1.8-2.9,3.3c0,0.1,0,0.2-0.1,0.3c0,0.1,0,0.1,0,0.2v0.1c-0.1,0.9-0.1,1.7,0.3,2.5c0,0.1,0.1,0.1,0.1,0.2l0,0l0,0
					l0,0l0,0c0,0.1,0.1,0.2,0.2,0.3c0.1,0.1,0.1,0.2,0.2,0.3l0,0c0.6,0.8,1.3,1.3,2.3,1.7c0.3,0.1,0.7,0.2,1.1,0.3
					c0.4,0.1,0.9,0.1,1.3,0c1.2-0.1,2.3-0.6,3.1-1.4c0.1-0.1,0.1-0.1,0.2-0.2c0.1-0.1,0.1-0.2,0.2-0.2c0.5-0.5,0.8-1.2,1-1.9
					c0-0.1,0.1-0.2,0.1-0.3v-0.1c0,0,0-0.1,0-0.2c0.1-0.3,0.1-0.5,0.1-0.7C225.5,767.3,225.2,766.4,224.6,765.6z M217.6,768.3
					C217.5,768.3,217.5,768.3,217.6,768.3c-0.2,0-0.3-0.1-0.4-0.2c0,0-0.1-0.1-0.1-0.2c0-0.1-0.1-0.2-0.1-0.3s0-0.2,0-0.3
					s0-0.2,0-0.3c0.1-0.5,0.4-1.1,0.9-1c0.1,0,0.3,0.1,0.3,0.2l0,0c0.1,0.1,0.1,0.2,0.1,0.3s0,0.3,0,0.4c0,0.1,0,0.2,0,0.3
					C218.3,767.7,218,768.3,217.6,768.3z M221.7,769.8c0,0.1-0.1,0.2-0.2,0.2l0,0c-0.1,0.1-0.2,0.2-0.3,0.2
					c-0.3,0.1-0.6,0.2-0.9,0.2h-0.1l-0.1,0.6l-0.1,0.4c0,0.1,0.1,0.1,0.1,0.2l0.1,0.1c0,0,0.1,0.1,0.2,0.1c0.1,0,0.2,0,0.4,0
					l0.1,0.3l0.1,0.3c-0.2,0-0.3,0.1-0.4,0.1c-0.3,0-0.5-0.1-0.7-0.2c-0.1-0.1-0.2-0.2-0.3-0.3c-0.1,0.1-0.2,0.2-0.4,0.2
					c-0.1,0-0.2,0-0.3,0c-0.2,0-0.5-0.1-0.7-0.2l0.2-0.3l0.1-0.3c0.1,0.1,0.3,0.1,0.4,0.1c0.1,0,0.3,0,0.3-0.1
					c0.1,0,0.1-0.1,0.2-0.1l0,0l0.1-0.5l0.1-0.5c-0.3-0.1-0.5-0.2-0.7-0.3c-0.1-0.1-0.2-0.2-0.2-0.2l0,0c-0.1-0.1-0.1-0.2-0.1-0.3
					s0-0.3,0-0.4c0.1-0.6,0.9-1,1.8-0.9c0.5,0.1,1,0.3,1.3,0.7c0.2,0.2,0.2,0.5,0.2,0.7C221.8,769.7,221.8,769.8,221.7,769.8z
					 M224.3,768c0,0.2-0.1,0.4-0.2,0.5c0,0.1-0.1,0.2-0.1,0.3c-0.1,0.1-0.1,0.2-0.2,0.2c-0.1,0-0.2,0.1-0.3,0.1c0,0,0,0-0.1,0
					s-0.2-0.1-0.3-0.2c-0.1-0.2-0.2-0.5-0.2-0.9c0,0,0-0.1,0-0.2c0-0.1,0-0.2,0.1-0.3c0.1-0.2,0.1-0.3,0.2-0.4
					c0.2-0.2,0.3-0.3,0.6-0.3c0.1,0,0.3,0.1,0.3,0.2C224.4,767.1,224.4,767.5,224.3,768z"/>
			</g>
			<path class="st12" d="M227.6,782.1c-0.3,1.6-2,2.8-3.7,2.5c-0.8-0.1-1.6-0.5-2-1.2c-0.2-0.3-0.4-0.7-0.5-1c0-0.1,0-0.2,0-0.3
				s0-0.2,0-0.3c0-0.2,0-0.3,0-0.5c0.3-1.5,1.7-2.6,3.3-2.6c0.1,0,0.2,0,0.3,0l0,0c0.1,0,0.2,0,0.3,0c0.7,0.2,1.3,0.5,1.8,1.1
				C227.6,780.6,227.8,781.3,227.6,782.1z"/>
		</g>
	</g>
	<g id="retalStore">
		<path class="st5" d="M272.5,794.2V823h30.8v-28.8H272.5z M283.1,799.1l0.2-0.7l2.3,0.3l-2-0.7l0.5-0.6l2,0.7l-1.5-1.1l0.8-0.4
			l1.5,1.1l-0.8-1.3l1-0.2l0.8,1.3v-1.4h1v1.4l0.8-1.3l1,0.2l-0.8,1.3l1.5-1.1l0.8,0.4l-1.5,1.1l2-0.7l0.5,0.6l-2,0.7l2.2-0.3
			l0.2,0.7l-2.2,0.3l2.2,0.2l-0.2,0.7l-2.2-0.3l2,0.7l-0.5,0.6l-0.2-0.1c-0.7-0.4-1.3-0.7-2.1-0.9c0.1-0.1,0.2-0.2,0.3-0.3
			c0-0.1,0-0.1,0.1-0.1c0-0.1,0.1-0.3,0.1-0.4v-0.2c0-0.1,0-0.3-0.1-0.4v-0.1c-0.1-0.1-0.2-0.3-0.3-0.4l-0.1-0.1
			c-0.1-0.1-0.3-0.2-0.5-0.3h-0.1c-0.2-0.1-0.4-0.2-0.7-0.2H289c-0.1,0-0.3,0-0.4,0s-0.3,0-0.4,0h-0.1c-0.3,0-0.5,0.1-0.7,0.2
			c-0.1,0-0.1,0-0.1,0c-0.2,0.1-0.4,0.2-0.5,0.3l-0.1,0.1c-0.1,0.1-0.2,0.2-0.3,0.4c0,0,0,0.1-0.1,0.1c-0.1,0.1-0.1,0.3-0.1,0.4v0.1
			c0,0.1,0,0.3,0.1,0.4c0,0,0,0.1,0.1,0.1c0.1,0.1,0.1,0.2,0.2,0.3c-0.8,0.2-1.6,0.6-2.3,1l-0.5-0.6l1.9-0.7l-2.2,0.2l-0.2-0.7
			l2.2-0.3H283.1z M290.1,799.3L290.1,799.3v0.2c0,0.1-0.1,0.2-0.2,0.3c0,0,0,0-0.1,0.1s-0.2,0.1-0.3,0.2h-0.1l0,0l0,0
			c-0.1,0.1-0.3,0.1-0.5,0.1l0,0h-0.1l0,0c-0.1,0-0.3,0-0.4,0l0,0l0,0c-0.1,0-0.3,0-0.4,0h-0.1l0,0l0,0c-0.2,0-0.3-0.1-0.5-0.1l0,0
			l0,0c0,0-0.1,0-0.1-0.1c-0.1,0-0.2-0.1-0.2-0.1s-0.1,0-0.1-0.1c-0.1-0.1-0.2-0.2-0.2-0.3v-0.1v-0.1c0,0,0-0.1,0-0.2V799
			c0-0.1,0.1-0.2,0.2-0.3c0,0,0.1,0,0.1-0.1c0.1-0.1,0.2-0.1,0.4-0.2l0,0l0,0c0.1-0.1,0.3-0.1,0.5-0.1l0,0c0.2,0,0.3,0,0.5,0l0,0
			l0,0c0.2,0,0.3,0,0.5,0l0,0c0.2,0,0.3,0.1,0.5,0.1l0,0c0.1,0,0.3,0.1,0.4,0.2c0,0,0.1,0,0.1,0.1c0.1,0.1,0.2,0.2,0.2,0.3v0.1
			C290.1,799.2,290.1,799.3,290.1,799.3z M284.7,801.7c0.7-0.4,1.5-0.8,2.3-0.9h0.1l0,0c0,0,0,0,0.1,0c0.2,0.1,0.4,0.2,0.7,0.2h0.1
			c0.1,0,0.3,0,0.4,0s0.3,0,0.4,0h0.1c0.3,0,0.5-0.1,0.7-0.2l0,0c0,0,0.1,0,0.2,0c0.8,0.2,1.5,0.5,2.3,0.9c0.9,0.6,1.8,1.3,2.5,2.2
			h-12.4C282.9,803,283.7,802.2,284.7,801.7z M281.6,804.5H295c0.6,0.9,1.2,1.8,1.5,2.7H280C280.4,806.3,281,805.4,281.6,804.5z
			 M279.8,807.9h17c0.3,0.8,0.4,1.6,0.4,2.4h-17.8C279.4,809.5,279.6,808.7,279.8,807.9z M276.6,818.4l-0.4-4.9l1.4-0.1h0.3l0.4,4.9
			H278L276.6,818.4z M297.5,819.3l-7.7,2.5c-0.1,0-0.2,0-0.2,0c-0.3,0-0.5-0.1-0.7-0.4l-0.8-1.4l-0.8,1.4c-0.2,0.3-0.6,0.5-0.9,0.3
			l-7.8-2.5c-0.2-0.1-0.4-0.2-0.5-0.4h0.5c0.1,0,0.2,0,0.2-0.1l0.1-0.1v-0.1l-0.5-5.5c0-0.2-0.2-0.3-0.3-0.3h-0.6
			c0-0.1,0.1-0.2,0.2-0.3c0.1-0.2,0.4-0.3,0.6-0.3h19.6c0.2,0,0.4,0.1,0.6,0.3c0.1,0.1,0.1,0.2,0.2,0.4l-0.7-0.1
			c-0.1,0-0.2,0-0.2,0.1l-0.1,0.1v0.1l-0.4,5.4v0.1c0,0.1,0.1,0.2,0.3,0.2h0.6C297.9,819.1,297.7,819.3,297.5,819.3z M299.5,818.4
			l-1.4-0.1h-0.3l0.4-4.8h0.4l1.3,0.1L299.5,818.4z"/>
		<g>
			<path class="st5" d="M296.6,807.2h-16.5c0.4-0.9,0.9-1.8,1.5-2.7H295C295.7,805.4,296.2,806.3,296.6,807.2z"/>
			<path class="st5" d="M297.2,810.2h-17.8c0-0.7,0.2-1.5,0.4-2.4h17C297.1,808.7,297.2,809.5,297.2,810.2z"/>
			<path class="st5" d="M297,813.8l-0.4,4.3l-6.7,2.1l-1.2-2c-0.1-0.2-0.4-0.4-0.7-0.4c-0.3,0-0.5,0.2-0.7,0.4l-1.2,2l-6.7-2.1
				l-0.4-4.3H297z"/>
			<path class="st12" d="M296.6,807.2h-16.5c0.4-0.9,0.9-1.8,1.5-2.7H295C295.7,805.4,296.2,806.3,296.6,807.2z"/>
			<path class="st12" d="M297.2,810.2h-17.8c0-0.7,0.2-1.5,0.4-2.4h17C297.1,808.7,297.2,809.5,297.2,810.2z"/>
			<path class="st5" d="M297,813.8l-0.4,4.3l-6.7,2.1l-1.2-2c-0.1-0.2-0.4-0.4-0.7-0.4c-0.3,0-0.5,0.2-0.7,0.4l-1.2,2l-6.7-2.1
				l-0.4-4.3H297z"/>
			<polygon class="st12" points="278.3,818.3 278.1,818.3 276.6,818.4 276.2,813.5 277.6,813.4 277.9,813.4 			"/>
			<polygon class="st12" points="299.9,813.6 299.5,818.4 298.1,818.3 297.8,818.3 298.2,813.5 298.6,813.5 			"/>
			<path class="st12" d="M297.1,818.7L297.1,818.7l0.4-5.5v-0.1c0,0,0-0.1,0.1-0.1c0.1-0.1,0.2-0.1,0.2-0.1l0.7,0.1
				c0-0.1-0.1-0.3-0.2-0.4c-0.2-0.2-0.4-0.3-0.6-0.3h-19.6c-0.2,0-0.4,0.1-0.6,0.3c-0.1,0.1-0.1,0.2-0.2,0.3h0.6
				c0.2,0,0.3,0.1,0.3,0.3l0.5,5.5v0.1c0,0,0,0.1-0.1,0.1c0,0.1-0.1,0.1-0.2,0.1h-0.5c0.1,0.2,0.3,0.4,0.5,0.4l7.8,2.5
				c0.3,0.1,0.7,0,0.9-0.3l0.8-1.4l0.8,1.4c0.1,0.2,0.4,0.4,0.7,0.4c0.1,0,0.2,0,0.2,0l7.7-2.5c0.2-0.1,0.4-0.2,0.4-0.4h-0.6
				C297.3,818.9,297.2,818.8,297.1,818.7z M297,813.8l-0.4,4.3l-6.7,2.1l-1.2-2c-0.1-0.2-0.4-0.4-0.7-0.4c-0.3,0-0.5,0.2-0.7,0.4
				l-1.2,2l-6.7-2.1l-0.4-4.3H297z"/>
			<path class="st12" d="M294.5,803.9h-12.4c0.7-0.9,1.6-1.6,2.5-2.2c0.7-0.4,1.5-0.8,2.3-0.9h0.1l0,0c0,0,0,0,0.1,0
				c0.2,0.1,0.4,0.2,0.7,0.2h0.1c0.1,0,0.3,0,0.4,0s0.3,0,0.4,0h0.1c0.3,0,0.5-0.1,0.7-0.2l0,0c0,0,0.1,0,0.2,0
				c0.8,0.2,1.5,0.5,2.3,0.9C292.9,802.3,293.8,803,294.5,803.9z"/>
			<path class="st12" d="M291.4,799.3l2.2,0.2l-0.2,0.7l-2.2-0.3l2,0.7l-0.5,0.6l-0.2-0.1c-0.7-0.4-1.3-0.7-2.1-0.9
				c0.1-0.1,0.2-0.2,0.3-0.3c0-0.1,0-0.1,0.1-0.1c0-0.1,0.1-0.3,0.1-0.4v-0.2c0-0.1,0-0.3-0.1-0.4v-0.1c-0.1-0.1-0.2-0.3-0.3-0.4
				l-0.1-0.1c-0.1-0.1-0.3-0.2-0.5-0.3h-0.1c-0.2-0.1-0.4-0.2-0.7-0.2H289c-0.1,0-0.3,0-0.4,0s-0.3,0-0.4,0h-0.1
				c-0.3,0-0.5,0.1-0.7,0.2c-0.1,0-0.1,0-0.1,0c-0.2,0.1-0.4,0.2-0.5,0.3l-0.1,0.1c-0.1,0.1-0.2,0.2-0.3,0.4c0,0,0,0.1-0.1,0.1
				c-0.1,0.1-0.1,0.3-0.1,0.4v0.1c0,0.1,0,0.3,0.1,0.4c0,0,0,0.1,0.1,0.1c0.1,0.1,0.1,0.2,0.2,0.3c-0.8,0.2-1.6,0.6-2.3,1l-0.5-0.6
				l1.9-0.7l-2.2,0.2l-0.2-0.7l2.2-0.3l-2.2-0.2l0.2-0.7l2.3,0.3l-2-0.7l0.5-0.6l2,0.7l-1.5-1.1l0.8-0.4l1.5,1.1l-0.8-1.3l1-0.2
				l0.8,1.3v-1.4h1v1.4l0.8-1.3l1,0.2l-0.8,1.3l1.5-1.1l0.8,0.4l-1.5,1.1l2-0.7l0.5,0.6l-2,0.7l2.2-0.3l0.2,0.7L291.4,799.3z"/>
			<path class="st12" d="M290.1,799.3L290.1,799.3v0.2c0,0.1-0.1,0.2-0.2,0.3c0,0,0,0-0.1,0.1s-0.2,0.1-0.3,0.2h-0.1l0,0l0,0
				c-0.1,0.1-0.3,0.1-0.5,0.1l0,0h-0.1l0,0c-0.1,0-0.3,0-0.4,0l0,0l0,0c-0.1,0-0.3,0-0.4,0h-0.1l0,0l0,0c-0.2,0-0.3-0.1-0.5-0.1l0,0
				l0,0c0,0-0.1,0-0.1-0.1c-0.1,0-0.2-0.1-0.2-0.1s-0.1,0-0.1-0.1c-0.1-0.1-0.2-0.2-0.2-0.3v-0.1v-0.1c0,0,0-0.1,0-0.2V799
				c0-0.1,0.1-0.2,0.2-0.3c0,0,0.1,0,0.1-0.1c0.1-0.1,0.2-0.1,0.4-0.2l0,0l0,0c0.1-0.1,0.3-0.1,0.5-0.1l0,0c0.2,0,0.3,0,0.5,0l0,0
				l0,0c0.2,0,0.3,0,0.5,0l0,0c0.2,0,0.3,0.1,0.5,0.1l0,0c0.1,0,0.3,0.1,0.4,0.2c0,0,0.1,0,0.1,0.1c0.1,0.1,0.2,0.2,0.2,0.3v0.1
				C290.1,799.2,290.1,799.3,290.1,799.3z"/>
		</g>
	</g>
</g>
<g id="Condos">
	<polygon class="st8" points="559.2,1047.3 584.3,1038.1 584.3,1048.4 559.2,1057.5 	"/>
	<polygon class="st8" points="549,1052 559.2,1057.5 559.2,1047.3 549,1041.8 	"/>
	<polygon class="st8" points="579.2,1028.5 584.3,1038.1 559.2,1047.3 554.1,1037.6 	"/>
	<polygon class="st8" points="554.1,1037.6 559.2,1047.3 549,1041.8 	"/>
	<polygon class="st8" points="551.5,1051.3 556.1,1053.7 556.1,1047.4 551.5,1045 	"/>
	<polygon class="st8" points="551.5,1051.3 551.5,1045 553.1,1045.8 553.1,1050.6 556.1,1052.2 556.1,1053.7 	"/>
	<polygon class="st8" points="564.8,1047.3 569.7,1045.5 569.7,1051.9 564.8,1053.7 	"/>
	<polygon class="st8" points="568.2,1046.1 569.7,1045.5 569.7,1051.9 564.8,1053.7 564.8,1052.1 568.2,1050.9 	"/>
	<polygon class="st8" points="575.2,1043.6 580.1,1041.8 580.1,1048.1 575.2,1049.9 	"/>
	<polygon class="st8" points="578.5,1042.3 580.1,1041.8 580.1,1048.1 575.2,1049.9 575.2,1048.4 578.5,1047.1 	"/>
	<polygon class="st9" points="559.2,1047.3 584.3,1038.1 584.3,1048.4 559.2,1057.5 	"/>
	<polygon class="st10" points="549,1052 559.2,1057.5 559.2,1047.3 549,1041.8 	"/>
	<polygon class="st11" points="579.2,1028.5 584.3,1038.1 559.2,1047.3 554.1,1037.6 	"/>
	<polygon class="st12" points="554.1,1037.6 559.2,1047.3 549,1041.8 	"/>
	<polygon class="st13" points="551.5,1051.3 556.1,1053.7 556.1,1047.4 551.5,1045 	"/>
	<polygon class="st9" points="551.5,1051.3 551.5,1045 553.1,1045.8 553.1,1050.6 556.1,1052.2 556.1,1053.7 	"/>
	<polygon class="st14" points="564.8,1047.3 569.7,1045.5 569.7,1051.9 564.8,1053.7 	"/>
	<polygon class="st13" points="568.2,1046.1 569.7,1045.5 569.7,1051.9 564.8,1053.7 564.8,1052.1 568.2,1050.9 	"/>
	<polygon class="st14" points="575.2,1043.6 580.1,1041.8 580.1,1048.1 575.2,1049.9 	"/>
	<polygon class="st13" points="578.5,1042.3 580.1,1041.8 580.1,1048.1 575.2,1049.9 575.2,1048.4 578.5,1047.1 	"/>
</g>
</svg>
