<?xml version="1.0" encoding="utf-8"?>
<!-- Generator: Adobe Illustrator 20.1.0, SVG Export Plug-In . SVG Version: 6.00 Build 0)  -->
<svg version="1.1" id="Layer_2" xmlns="http://www.w3.org/2000/svg" xmlns:xlink="http://www.w3.org/1999/xlink" x="0px" y="0px"
	 viewBox="0 0 19.3 18" style="enable-background:new 0 0 19.3 18;" xml:space="preserve">
<style type="text/css">
	.st0{fill:#231F20;}
</style>
<path id="cafeteria" class="st0" d="M0,0v18h19.3V0H0z M9.3,6.5c0,0.1,0,0.1,0,0.1c-0.2,0.5-0.2,1-0.8,1.1c-0.1,0-0.2,0-0.4,0H8v7.8
	c0,0.4-0.3,0.8-0.8,0.8H7.1c-0.4,0-0.7-0.4-0.7-0.8V7.7H6c-0.1,0-0.1,0-0.2,0C5.3,7.6,5.1,7.4,5.1,7c0-0.1,0-0.1,0-0.1V2.5
	c0-0.2,0.2-0.4,0.4-0.5c0,0,0,0,0.1,0l0,0c0.3,0,0.5,0.3,0.5,0.5v3.4h0.6V2.5C6.7,2.3,6.9,2,7.1,2h0.1c0.3,0,0.5,0.3,0.5,0.5v3.4
	h0.6V2.5C8.3,2.3,8.5,2,8.7,2l0,0C9,2,9.2,2.3,9.2,2.5v4H9.3z M14.5,14.9c0,0.8-0.1,1.4-0.8,1.4c-0.5,0-0.8-0.8-0.8-0.9V9.7
	c0,0-1-0.9-1-1.8V3c0-0.8,0.6-1.4,1.3-1.4c0.8,0,1.3,0.7,1.3,1.4V14.9z"/>
</svg>
