<?xml version="1.0" encoding="utf-8"?>
<!-- Generator: Adobe Illustrator 20.1.0, SVG Export Plug-In . SVG Version: 6.00 Build 0)  -->
<svg version="1.1" id="Layer_2" xmlns="http://www.w3.org/2000/svg" xmlns:xlink="http://www.w3.org/1999/xlink" x="0px" y="0px"
	 viewBox="0 0 24.7 21.7" style="enable-background:new 0 0 24.7 21.7;" xml:space="preserve">
<style type="text/css">
	.st0{fill:#EC2127;}
</style>
<g>
	<path class="st0" d="M18.9,21.6c-0.2,0-0.3,0-0.5,0c-2.9,0-5.7,0-8.6,0c-2.8,0-5.7,0-8.5,0c-0.3,0-0.5,0-0.8-0.1
		C0.1,21.4-0.1,21,0,20.6c0.1-0.3,0.2-0.6,0.3-0.8c2.4-4.1,4.8-8.3,7.2-12.4C8.8,5.2,10,3,11.3,0.8c0.1-0.2,0.3-0.4,0.5-0.6
		c0.4-0.3,0.8-0.3,1.1,0c0.1,0.1,0.2,0.3,0.3,0.4c3.3,5.8,6.7,11.6,10,17.4c0.4,0.7,0.8,1.4,1.2,2.1c0.5,0.9,0.2,1.6-0.9,1.6
		C21.9,21.6,20.4,21.6,18.9,21.6L18.9,21.6z M22.6,20c-3.5-6-6.9-12-10.4-18.1C8.7,7.9,5.3,14,1.9,20C8.8,20,15.7,20,22.6,20z"/>
	<path class="st0" d="M14,8.4c-0.1,0.6-0.2,1.3-0.2,1.9c-0.2,1.4-0.4,2.8-0.6,4.2c0,0.3-0.1,0.5-0.3,0.8c-0.3,0.6-1,0.6-1.4,0
		c-0.1-0.2-0.2-0.5-0.3-0.8c-0.3-2-0.5-4-0.8-6.1c-0.1-0.8,0.5-1.5,1.3-1.7C12.9,6.3,14,7.2,14,8.4z"/>
	<path class="st0" d="M13.5,17.6c0,0.7-0.5,1.3-1.2,1.3S11,18.3,11,17.6s0.5-1.2,1.2-1.2C12.9,16.4,13.5,16.9,13.5,17.6z"/>
</g>
</svg>
