<?xml version="1.0" encoding="utf-8"?>
<!-- Generator: Adobe Illustrator 20.1.0, SVG Export Plug-In . SVG Version: 6.00 Build 0)  -->
<svg version="1.1" id="Layer_2" xmlns="http://www.w3.org/2000/svg" xmlns:xlink="http://www.w3.org/1999/xlink" x="0px" y="0px"
	 viewBox="0 0 19.3 18" style="enable-background:new 0 0 19.3 18;" xml:space="preserve">
<style type="text/css">
	.st0{fill:#231F20;}
	.st1{fill:#FFFFFF;}
</style>
<g id="childMind">
	<path class="st0" d="M9.2,4.3v0.4c0,0.2-0.1,0.4-0.1,0.5S9,5.3,9,5.3c-0.1,0-0.1,0.1-0.2,0.1l0,0l0,0l0,0c0,0,0,0-0.1,0L8.6,5.3
		L8.5,5.2c0-0.1-0.1-0.1-0.1-0.2V4.6C8.5,4.3,8.7,3.9,9,4c0.1,0,0.2,0.1,0.2,0.1C9.2,4.2,9.2,4.3,9.2,4.3z"/>
	<path class="st0" d="M12.9,5.3c0,0.1-0.1,0.3-0.1,0.3c0,0.1-0.1,0.1-0.1,0.2c-0.1,0.1-0.1,0.1-0.1,0.1c-0.1,0-0.1,0.1-0.2,0.1
		c0,0,0,0-0.1,0s-0.1-0.1-0.2-0.1C12,5.8,12,5.6,12,5.3V5.2c0,0,0-0.1,0.1-0.2c0.1-0.1,0.1-0.2,0.1-0.3c0.1-0.1,0.2-0.2,0.4-0.2
		c0.1,0,0.2,0.1,0.2,0.1C13,4.7,13,5,12.9,5.3z"/>
	<path class="st0" d="M0,0v18h19.3V0H0z M13.9,3h0.2c0.4,0.1,0.7,0.3,0.9,0.6c0.1,0.1,0.2,0.4,0.2,0.7v0.3c-0.1,0.6-0.6,1.1-1.2,1.3
		c0.1-0.8-0.1-1.6-0.6-2.3c-0.1-0.1-0.2-0.3-0.3-0.4C13.4,3.1,13.6,3,13.9,3z M9.4,2.8c0.1,0,0.1-0.1,0.2-0.1
		c0.3-0.1,0.7-0.2,1.1-0.2h0.4c0.5,0.1,1,0.3,1.4,0.6c0.1,0.1,0.1,0.1,0.1,0.1c0,0.1,0.1,0.1,0.1,0.1c0.1,0.1,0.2,0.3,0.3,0.4
		c0.4,0.5,0.6,1.1,0.6,1.8c0,0.1,0,0.3-0.1,0.4c0,0.1,0,0.1,0,0.1v0.1c0,0.1-0.1,0.1-0.1,0.2c-0.1,0.4-0.3,0.9-0.6,1.2
		c-0.1,0-0.1,0.1-0.1,0.1c-0.1,0.1-0.1,0.1-0.1,0.1c-0.5,0.5-1.2,0.8-1.9,0.9c-0.3,0.1-0.6,0.1-0.8,0S9.4,8.5,9.2,8.4
		C8.6,8.1,8.1,7.8,7.8,7.3C7.7,7.2,7.7,7.2,7.7,7.1C7.6,7,7.6,7,7.6,6.9c0-0.1-0.1-0.1-0.1-0.1c-0.3-0.5-0.3-1-0.2-1.6V5.1
		c0-0.1,0-0.1,0-0.1c0.1-0.1,0.1-0.1,0.1-0.2c0.3-0.9,0.9-1.7,1.8-2.1C9.3,2.9,9.4,2.8,9.4,2.8z M6.4,3.3C6.5,2.5,7.2,2,8,2h0.2
		c0.3,0.1,0.6,0.3,0.9,0.6C8.2,3,7.4,3.9,7.1,4.8C7,4.7,6.8,4.6,6.7,4.4C6.5,4,6.4,3.6,6.4,3.3z M4.4,7.8C4.5,7,5.2,6.5,6,6.5h0.2
		C6.5,6.6,6.8,6.7,7,6.9C7,7,7.1,7,7.1,7c0,0.1,0.1,0.1,0.1,0.2c0.1,0.1,0.1,0.1,0.1,0.2C7.4,7.7,7.4,7.8,7.4,8v0.3
		C7.2,9.1,6.5,9.7,5.6,9.6c0,0,0,0-0.1,0s-0.1,0-0.2-0.1c-0.1,0-0.1-0.1-0.2-0.1C4.8,9.3,4.7,9.1,4.5,8.9C4.4,8.5,4.3,8.2,4.4,7.8z
		 M7.5,13.6c0,0.1,0,0.1-0.1,0.2c0,0.1-0.1,0.1-0.1,0.2s-0.1,0.1-0.1,0.2c-0.4,0.7-1.2,1.1-2,1c-0.5-0.1-0.9-0.3-1.3-0.7
		c-0.3-0.4-0.4-0.8-0.3-1.3c0.1-0.8,0.8-1.3,1.4-1.4c0.1,0,0.1,0,0.2-0.1h0.2c0.1,0,0.1,0,0.1,0h0.3C6.3,11.8,6.7,12,7,12.4
		c0.3,0.3,0.3,0.6,0.3,0.9v0.3H7.5z M10.7,14c-0.6,0.2-1.3,0.3-1.9,0.2c-0.4-0.1-0.7-0.1-1-0.3c0.1-0.1,0.1-0.2,0.1-0.3
		C8,13,7.9,12.5,7.6,12s-0.9-0.8-1.4-0.9H5.7c-0.1-0.4-0.1-0.9,0-1.4c0,0,0,0,0-0.1H6c0.9,0,1.8-0.7,1.9-1.6V7.7
		C8.2,8,8.4,8.1,8.7,8.3C9,8.5,9.4,8.6,9.8,8.6h0.5c0.3,0,0.6,0,0.8-0.1c0.7-0.1,1.3-0.5,1.8-0.9C13,7.7,13,7.7,13.1,7.8
		c0.1,0.1,0.1,0.2,0.2,0.3c-0.7,0.2-1.3,0.8-1.4,1.5c-0.1,0.5,0,0.9,0.3,1.3c0.1,0.3,0.3,0.4,0.4,0.6c-0.9,0.2-1.7,0.9-1.9,1.8
		C10.7,13.7,10.7,13.9,10.7,14z M15,14.1c-0.2,1-1.3,1.8-2.3,1.6c-0.5-0.1-1-0.3-1.3-0.8c-0.1-0.2-0.3-0.4-0.3-0.6v-0.7
		c0.2-0.9,1.1-1.6,2.1-1.6h0.4c0.4,0.1,0.8,0.3,1.1,0.7C15,13.2,15.1,13.6,15,14.1z M15.2,10.3c-0.1,0.7-0.8,1.2-1.4,1.3h-0.4
		c-0.4-0.1-0.8-0.3-1-0.6s-0.3-0.7-0.3-1.1c0.1-0.6,0.6-1.1,1.2-1.3h0.6c0.4,0.1,0.8,0.3,1,0.6C15.2,9.6,15.3,10,15.2,10.3z"/>
	<path class="st0" d="M11.4,6.3c-0.1,0.1-0.1,0.1-0.1,0.1l0,0c0,0.1-0.1,0.1-0.1,0.1c-0.1,0.1-0.1,0.1-0.2,0.1
		c-0.2,0.1-0.4,0.1-0.6,0.1h-0.1l-0.1,0.4l-0.1,0.3l0,0l0,0c0,0,0,0,0,0.1l0.1,0.1l0.1,0.1h0.3l0.1,0.2l0.1,0.2l0,0
		c-0.1,0-0.2,0.1-0.2,0.1c-0.2,0-0.3-0.1-0.4-0.1C10.1,8,10.1,8,10,7.9C9.9,8,9.9,8,9.7,8H9.5C9.4,8,9.2,7.9,9.1,7.9l0,0l0.1-0.2
		l0.1-0.2c0.1,0.1,0.2,0.1,0.3,0.1s0.2,0,0.2-0.1c0.1,0,0.1-0.1,0.1-0.1L10,7.1l0.1-0.3V6.7C9.9,6.6,9.8,6.6,9.7,6.5
		C9.6,6.4,9.6,6.4,9.6,6.4C9.5,6.3,9.5,6.3,9.5,6.2V5.9c0.1-0.4,0.6-0.6,1.1-0.6c0.3,0.1,0.6,0.2,0.8,0.4C11.4,6,11.4,6.1,11.4,6.3z
		"/>
	<g>
		<g>
			<path class="st0" d="M12.9,5.3c0,0.1-0.1,0.3-0.1,0.3c0,0.1-0.1,0.1-0.1,0.2c-0.1,0.1-0.1,0.1-0.1,0.1c-0.1,0-0.1,0.1-0.2,0.1
				c0,0,0,0-0.1,0s-0.1-0.1-0.2-0.1C12,5.8,12,5.6,12,5.3V5.2c0,0,0-0.1,0.1-0.2c0.1-0.1,0.1-0.2,0.1-0.3c0.1-0.1,0.2-0.2,0.4-0.2
				c0.1,0,0.2,0.1,0.2,0.1C13,4.7,13,5,12.9,5.3z"/>
			<path class="st0" d="M9.2,4.3v0.4c0,0.2-0.1,0.4-0.1,0.5S9,5.3,9,5.3c-0.1,0-0.1,0.1-0.2,0.1l0,0l0,0l0,0c0,0,0,0-0.1,0L8.6,5.3
				L8.5,5.2c0-0.1-0.1-0.1-0.1-0.2V4.6C8.5,4.3,8.7,3.9,9,4c0.1,0,0.2,0.1,0.2,0.1C9.2,4.2,9.2,4.3,9.2,4.3z"/>
			<path class="st1" d="M8.6,5.5C8.7,5.5,8.7,5.5,8.6,5.5L8.6,5.5C8.7,5.5,8.7,5.5,8.6,5.5C8.7,5.5,8.7,5.5,8.6,5.5z"/>
		</g>
	</g>
</g>
</svg>
