<?xml version="1.0" encoding="utf-8"?>
<!-- Generator: Adobe Illustrator 20.1.0, SVG Export Plug-In . SVG Version: 6.00 Build 0)  -->
<svg version="1.1" id="Layer_2" xmlns="http://www.w3.org/2000/svg" xmlns:xlink="http://www.w3.org/1999/xlink" x="0px" y="0px"
	 viewBox="0 0 44.2 33" style="enable-background:new 0 0 44.2 33;" xml:space="preserve">
<style type="text/css">
	.st0{fill:#231F20;}
</style>
<path id="download" class="st0" d="M44.1,19.7c-0.4-1.6-1-3-2-4.3c-0.9-1.1-1.9-2-3.1-2.8c-0.2-0.1-0.3-0.2-0.2-0.4
	c0.3-1.9,0-3.8-0.8-5.6c-0.6-1.3-1.3-2.5-2.3-3.4c-1.6-1.6-3.5-2.6-5.7-3c-2.6-0.5-5.1-0.2-7.5,1.1C21.2,2,20,3,19.1,4.1
	c-0.2,0.3-0.4,0.3-0.6,0.2c-2.2-0.4-4.3-0.2-6.2,0.8c-2.7,1.4-4.4,3.6-5.1,6.6C7,12.4,7,13.2,7,13.9c0,0.3-0.1,0.4-0.3,0.4
	c-1.8,0.5-3.2,1.6-4.4,2.9c-1,1.1-1.6,2.4-2,3.8c0,0.2,0,0.5-0.3,0.5v3.8c0.3,0,0.2,0.3,0.2,0.4c0.4,1.9,1.4,3.5,2.8,4.8
	C4.8,32.1,6.9,33,9.3,33c7.9,0,15.9,0,23.8,0c2.4,0,4.5-0.6,6.4-2c2.4-1.7,3.9-4,4.5-6.8c0-0.1,0-0.3,0.2-0.3L44.1,19.7
	C44.1,20.1,44.2,19.8,44.1,19.7z M30,19.8c-2.5,2.5-5,5-7.5,7.5c-0.3,0.3-0.4,0.3-0.7,0c-2.5-2.5-5-5-7.5-7.5
	c-0.1-0.1-0.2-0.2-0.3-0.3c0.2-0.1,0.3-0.1,0.5-0.1c1.4,0,2.9,0,4.3,0c0.4,0,0.6-0.1,0.6-0.6c0-2.4,0-4.8,0-7.2
	c0-0.5,0.1-0.6,0.6-0.6c1.5,0,3,0,4.5,0c0.4,0,0.5,0.1,0.5,0.5c0,2.4,0,4.8,0,7.2c0,0.8-0.1,0.7,0.7,0.7h4.7
	C30.3,19.7,30.1,19.7,30,19.8z"/>
</svg>
