<?xml version="1.0" encoding="utf-8"?>
<!-- Generator: Adobe Illustrator 20.1.0, SVG Export Plug-In . SVG Version: 6.00 Build 0)  -->
<svg version="1.1" id="Layer_2" xmlns="http://www.w3.org/2000/svg" xmlns:xlink="http://www.w3.org/1999/xlink" x="0px" y="0px"
	 viewBox="0 0 19 18.4" style="enable-background:new 0 0 19 18.4;" xml:space="preserve">
<style type="text/css">
	.st0{fill:#EC2127;}
</style>
<path id="magicCarpet" class="st0" d="M18.7,6.5c0-0.1,0-0.1-0.1-0.2c0-0.1,0-0.1-0.1-0.2V6c0,0,0-0.1-0.1-0.1c0-0.1,0-0.1-0.1-0.2
	c0,0,0-0.1-0.1-0.1C16.7,2.3,13.4,0,9.5,0c-3.2,0-6,1.6-7.7,3.9c0,0,0,0.1-0.1,0.1c0,0.1-0.1,0.1-0.1,0.2c0,0.1-0.1,0.1-0.1,0.2
	C1,5.1,0.7,5.9,0.4,6.8c0,0.1-0.1,0.2-0.1,0.4c0,0.1,0,0.2-0.1,0.2c0,0.1,0,0.2-0.1,0.2C0.1,7.7,0,7.9,0,8l0,0v0.1v0.1v0.1v0.1v0.1
	v0.1v0.1c0,0.1,0,0.1,0,0.2V9v0.1v0.1c0,0.1,0,0.1,0,0.2c0,0.1,0,0.1,0,0.2v0.1c0,0.1,0,0.1,0,0.2C0,10,0,10,0,10.1
	c0,0.1,0,0.2,0,0.2c0,0.1,0,0.3,0,0.4c0,0.1,0,0.2,0,0.3c0,0.2,0.1,0.5,0.2,0.7v0.1c0.2,0.9,0.6,1.7,1.1,2.3
	c0.2-0.8,0.7-1.3,1.5-1.3c0.5,0,1-0.2,1.5-0.3c0.3-0.1,0.4,0,0.6,0.2c0.2,0.4,0.6,0.6,1.1,0.5s0.8-0.4,0.9-0.9
	c0-0.2,0.2-0.3,0.4-0.4c1.4-0.3,2.8-0.5,4.2-0.7c0.1,0,0.3,0,0.4,0.1c0.7,0.7,1.5,0.5,1.9-0.3c0.1-0.1,0.2-0.2,0.3-0.3
	c1.1-0.2,2.3-0.4,3.4-0.6c0.4-0.1,0.5,0.1,0.4,0.5c-0.1,0.6-0.6,1-1.2,1.1c-4,0.7-8.1,1.3-12.1,2c-1.1,0.2-2.1,0.4-3.2,0.5
	c1.5,2.3,4,3.8,6.7,4.2l0,0l0,0c0.1,0,0.1,0,0.2,0h0.1l0,0h0.1h0.1h0.1h0.1c0.1,0,0.1,0,0.2,0l0,0l0,0h0.1c0,0,0,0,0.1,0
	c0,0,0,0,0.1,0h0.1h0.1c0.1,0,0.1,0,0.2,0s0.2,0,0.2,0c0.2,0,0.3,0,0.5,0c0.1,0,0.2,0,0.2,0c0.2,0,0.3-0.1,0.5-0.1l0,0
	c0.1,0,0.1,0,0.2,0s0.1,0,0.2,0s0.1,0,0.2,0l0,0c3.4-0.9,6.1-3.7,6.8-7.2V11c0.1-0.6,0.2-1.2,0.2-1.9C19.2,8.5,19,7.4,18.7,6.5z
	 M7,12.4c0,0.6-0.4,1-0.9,1S5.2,13,5.2,12.5c0-1.2,0-2.3,0-3.5c0-0.5,0.4-0.9,0.9-0.9S7,8.5,7,9.1s0,1.1,0,1.7C7,11.3,7,11.9,7,12.4
	z M6.2,7.8C5.6,7.8,5,7.2,5,6.6C5,6,5.6,5.4,6.2,5.4s1.2,0.5,1.2,1.2C7.3,7.2,6.8,7.8,6.2,7.8z M14,11.1c0,0.5-0.4,0.9-0.8,0.9
	c-0.5,0-0.9-0.3-1-0.9c0-1.2,0-2.4,0-3.5c0-0.5,0.4-0.9,0.9-0.9s0.9,0.4,0.9,1s0,1.2,0,1.7S14,10.5,14,11.1z M13.1,6.4
	c-0.6,0-1.2-0.6-1.2-1.2c0-0.6,0.6-1.2,1.2-1.2s1.2,0.6,1.1,1.2C14.3,5.9,13.7,6.4,13.1,6.4z"/>
</svg>
