<?xml version="1.0" encoding="utf-8"?>
<!-- Generator: Adobe Illustrator 20.1.0, SVG Export Plug-In . SVG Version: 6.00 Build 0)  -->
<svg version="1.1" id="Layer_2" xmlns="http://www.w3.org/2000/svg" xmlns:xlink="http://www.w3.org/1999/xlink" x="0px" y="0px"
	 viewBox="0 0 19.3 18" style="enable-background:new 0 0 19.3 18;" xml:space="preserve">
<style type="text/css">
	.st0{fill:#231F20;}
</style>
<g id="retalStore">
	<path class="st0" d="M0,0v18h19.3V0H0z M6.7,3.1l0.1-0.4l1.4,0.2L6.9,2.5l0.3-0.4l1.3,0.4L7.6,1.8l0.5-0.3L9,2.2L8.5,1.4l0.6-0.1
		l0.5,0.8V1.2h0.6v0.9l0.5-0.8l0.6,0.1l-0.5,0.8l0.9-0.7l0.5,0.3l-0.9,0.7l1.3-0.4l0.3,0.4l-1.3,0.4L13,2.7l0.1,0.4l-1.4,0.2
		l1.4,0.1L13,3.8l-1.4-0.2L12.9,4l-0.3,0.4l-0.1-0.1c-0.4-0.3-0.8-0.4-1.3-0.6c0.1-0.1,0.1-0.1,0.2-0.2c0-0.1,0-0.1,0.1-0.1
		c0-0.1,0.1-0.2,0.1-0.3V3c0-0.1,0-0.2-0.1-0.3V2.6c-0.1-0.1-0.1-0.2-0.2-0.3l-0.1-0.1C11.1,2.1,11,2.1,10.9,2h-0.1
		c-0.1-0.1-0.3-0.1-0.4-0.1h-0.1c-0.1,0-0.2,0-0.3,0s-0.2,0-0.3,0h0.1C9.6,1.9,9.5,2,9.4,2S9.3,2,9.3,2C9.2,2.1,9,2.1,9,2.2L8.9,2.3
		C8.8,2.4,8.8,2.4,8.7,2.6c0,0,0,0.1-0.1,0.1C8.5,2.8,8.5,2.9,8.5,3v0.1c0,0.1,0,0.2,0.1,0.3c0,0,0,0.1,0.1,0.1
		c0.1,0.1,0.1,0.1,0.1,0.2c-0.5,0.1-1,0.4-1.4,0.6L7.1,3.9l1.2-0.4L6.9,3.6L6.8,3.2L8.2,3L6.7,3.1L6.7,3.1z M11.1,3.2L11.1,3.2v0.1
		c0,0.1-0.1,0.1-0.1,0.2c0,0,0,0-0.1,0.1s-0.1,0.1-0.2,0.1h-0.1l0,0l0,0c-0.1,0.1-0.2,0.1-0.3,0.1l0,0h-0.1l0,0c-0.1,0-0.2,0-0.3,0
		l0,0l0,0c-0.1,0-0.2,0-0.3,0H9.5l0,0l0,0c-0.1,0-0.2-0.1-0.3-0.1l0,0l0,0c0,0-0.1,0-0.1-0.1C9,3.6,9,3.5,9,3.5s-0.1,0-0.1-0.1
		C8.8,3.3,8.8,3.3,8.8,3.2V3.1V3V2.9V2.8c0-0.1,0.1-0.1,0.1-0.2c0,0,0.1,0,0.1-0.1c0.1-0.1,0.1-0.1,0.3-0.1l0,0l0,0
		c0.1-0.1,0.2-0.1,0.3-0.1l0,0c0.1,0,0.2,0,0.3,0l0,0l0,0c0.1,0,0.2,0,0.3,0l0,0c0.1,0,0.2,0.1,0.3,0.1l0,0c0.1,0,0.2,0.1,0.3,0.1
		c0,0,0.1,0,0.1,0.1C11,2.7,11,2.7,11,2.8v0.1C11.1,3.1,11.1,3.2,11.1,3.2z M7.7,4.7c0.4-0.3,0.9-0.5,1.4-0.6h0.1l0,0c0,0,0,0,0.1,0
		c0.1,0.1,0.3,0.1,0.4,0.1h0.1c0.1,0,0.2,0,0.3,0s0.2,0,0.3,0h0.1c0.2,0,0.3-0.1,0.4-0.1l0,0H11c0.5,0.1,0.9,0.3,1.4,0.6
		C13,5.1,13.5,5.5,14,6.1H6.2C6.5,5.5,7,5,7.7,4.7z M5.7,6.5h8.4c0.4,0.6,0.8,1.1,0.9,1.7H4.7C5,7.6,5.4,7,5.7,6.5z M4.6,8.6h10.6
		c0.2,0.5,0.3,1,0.3,1.5H4.4C4.4,9.6,4.5,9.1,4.6,8.6z M2.6,15.2l-0.3-3.1L3.2,12h0.2l0.3,3.1H3.5L2.6,15.2z M15.7,15.7l-4.8,1.6
		c-0.1,0-0.1,0-0.1,0c-0.2,0-0.3-0.1-0.4-0.3l-0.5-0.9L9.4,17c-0.1,0.2-0.4,0.3-0.6,0.2l-5-1.5c-0.1-0.1-0.3-0.1-0.3-0.3h0.3
		c0.1,0,0.1,0,0.1-0.1L4,15.2v-0.1l-0.3-3.4c0-0.1-0.1-0.2-0.2-0.2H3.1c0-0.1,0.1-0.1,0.1-0.2c0.1-0.1,0.3-0.2,0.4-0.2h12.3
		c0.1,0,0.3,0.1,0.4,0.2c0.1,0.1,0.1,0.1,0.1,0.3L16,11.5c-0.1,0-0.1,0-0.1,0.1l-0.1,0.1v0.1l-0.3,3.4v0.1c0,0.1,0.1,0.1,0.2,0.1
		h0.4C15.9,15.6,15.8,15.7,15.7,15.7z M16.9,15.2L16,15.1h-0.2l0.3-3h0.3l0.8,0.1L16.9,15.2z"/>
	<path class="st0" d="M15.4,12.3L15.1,15l-4.2,1.3L10.1,15c-0.1-0.1-0.3-0.3-0.4-0.3c-0.2,0-0.3,0.1-0.4,0.3l-0.8,1.3L4.3,15L4,12.3
		H15.4z"/>
</g>
</svg>
