<?xml version="1.0" encoding="utf-8"?>
<!-- Generator: Adobe Illustrator 20.1.0, SVG Export Plug-In . SVG Version: 6.00 Build 0)  -->
<svg version="1.1" id="Layer_2" xmlns="http://www.w3.org/2000/svg" xmlns:xlink="http://www.w3.org/1999/xlink" x="0px" y="0px"
	 viewBox="0 0 19.2 19.2" style="enable-background:new 0 0 19.2 19.2;" xml:space="preserve">
<style type="text/css">
	.st0{fill:#EC2127;}
</style>
<path id="skiLifts" class="st0" d="M9.6,0C4.3,0,0,4.3,0,9.6s4.3,9.6,9.6,9.6c5.3,0,9.6-4.3,9.6-9.6S14.9,0,9.6,0z M11.2,17.8
	c0,0.6-0.4,0.9-0.9,0.8c-0.6,0-0.9-0.3-0.9-0.8c0-0.4,0-0.9,0-1.4c-0.5,0-0.8,0-1.2,0c-0.7,0-1-0.3-1-1c0-1.1,0-2.3,0-3.4
	c0-0.7,0.4-1,0.9-1.1C8.7,10.9,9,11.3,9,12c0,0.8,0,1.6,0,2.5c0.5,0,0.9,0,1.3,0c0.6,0,0.9,0.3,0.9,0.9C11.2,16.3,11.2,17,11.2,17.8
	z M10.4,6.7c0.3-0.5,0.7-0.6,1.2-0.4c0.5,0.2,0.8,0.5,0.9,1.1c0,0.6-0.2,0.9-0.9,1.2C11.7,7.6,11.3,6.9,10.4,6.7z M10.6,7
	c0.5,0.2,0.8,0.6,0.8,1.1S11.1,9,10.5,9.2c0.1-1-0.3-1.6-1.2-1.9C9.6,6.9,10.1,6.8,10.6,7z M9.5,7.7c0.5,0.2,0.8,0.6,0.8,1.1
	S10,9.8,9.4,10c0.1-1-0.3-1.6-1.2-1.9C8.6,7.6,9,7.5,9.5,7.7z M9.3,9.5c0,0.6-0.6,1.2-1.2,1.2c-0.7,0-1.2-0.6-1.2-1.2
	c0-0.6,0.6-1.2,1.2-1.2S9.3,8.9,9.3,9.5z M12.3,17.1c0,0.5-0.3,0.8-0.9,0.9c0-0.7,0-1.4,0-2.1c0-1.1-0.3-1.4-1.4-1.4
	c-0.3,0-0.5,0-0.9,0c0-0.7,0-1.3,0-1.9c0-0.6,0.1-1.2-0.6-1.6c0-0.1,0-0.1,0-0.1c0.3-0.1,0.4-0.7,0.9-0.4s0.5,0.7,0.5,1.2
	c0,0.7,0,1.5,0,2.3c0.5,0,0.9,0,1.3,0c0.7,0,1,0.3,1,0.9C12.3,15.6,12.3,16.3,12.3,17.1z M13.4,16.4c0,0.6-0.2,0.7-0.9,0.9
	c0-0.7,0-1.4,0-2c0-1.2-0.3-1.5-1.5-1.5h-0.7c-0.4-1.2,0.4-2.5-0.7-3.6c0.3-0.2,0.6-0.4,0.9-0.4c0.5,0,0.6,0.5,0.6,0.9
	c0,0.8,0,1.7,0,2.6c0.5,0,0.9,0,1.3,0c0.6,0,1,0.3,1,1C13.4,14.9,13.4,15.6,13.4,16.4z M14.4,15.6c0,0.6-0.2,0.9-0.9,1
	c0-0.7,0-1.4,0-2.1c0.1-1.1-0.3-1.5-1.4-1.5c-0.3,0-0.5,0-0.7,0c-0.4-1.2,0.4-2.5-0.7-3.6c0.4-0.1,0.7-0.4,1-0.4
	c0.5,0.1,0.6,0.6,0.5,1.1c0,0.8,0,1.5,0,2.4h1.2c0.7,0,1.1,0.3,1.1,1C14.4,14.2,14.4,14.9,14.4,15.6z M14.2,2.3
	c-0.5,0.3-1,0.4-1.4,0.6c-0.5,0.2-1,0.5-1.5,0.6C9.8,3.9,8.8,4.8,8.2,6.1c-0.6,1.2-1.4,2.3-2,3.4c-0.2,0.3-0.3,0.6-0.3,1
	c0,1.9,0,3.8,0,5.7c0,0.5,0.1,0.7,0.6,0.7s1,0,1.5,0c0.3,0,0.7,0.1,0.6,0.5c0,0.2-0.4,0.4-0.6,0.4c-0.8,0-1.6,0-2.4,0
	c-0.4,0-0.6-0.2-0.6-0.6c0-2.4,0-4.7,0-7.1c0-0.2,0.1-0.5,0.2-0.7C6.1,8,6.9,6.5,7.8,5.1c0,0,0-0.1-0.1-0.1c-2,0.8-3.9,1.6-5.9,2.4
	C1.6,7.5,1.4,7.6,1.2,7.6S0.8,7.5,0.5,7.4c0.1-0.2,0.2-0.6,0.4-0.6c1-0.4,1.9-0.8,2.9-1.2C7,4.3,10.3,3,13.5,1.7
	c0.1,0,0.2-0.1,0.3-0.1c0.2,0,0.4,0.1,0.7,0.2C14.4,1.9,14.3,2.2,14.2,2.3z"/>
</svg>
