<?xml version="1.0" encoding="utf-8"?>
<!-- Generator: Adobe Illustrator 20.1.0, SVG Export Plug-In . SVG Version: 6.00 Build 0)  -->
<svg version="1.1" id="Layer_2" xmlns="http://www.w3.org/2000/svg" xmlns:xlink="http://www.w3.org/1999/xlink" x="0px" y="0px"
	 viewBox="0 0 19.3 18" style="enable-background:new 0 0 19.3 18;" xml:space="preserve">
<style type="text/css">
	.st0{fill:#231F20;}
</style>
<path id="skiRentalAndRepair_1_" class="st0" d="M0,0v18h19.3V0H0z M14.6,17H5.1c-0.2,0-0.4-0.2-0.4-0.4s0.2-0.4,0.4-0.4h9.5
	c0.2,0,0.4,0.1,0.4,0.4C15,16.8,14.8,17,14.6,17z M5,15.7c0,0,0-0.2-0.1-0.6c0-0.4,0.4-1,1.1-1.3c0.4-0.1,2.6-0.3,2.6-0.3l1.7,0.8
	c0,0-0.1,0.6,0.2,0.7c0.3,0.1,0.6-0.4,0.6-0.4s0.9,0.3,1-0.1c0.1-0.3-0.8-0.6-0.8-0.6s0.1-0.6-0.2-0.6s-0.4,0.4-0.4,0.4l-1.4-0.6
	l0.4-1.4l1.5,0.6c0,0,0,0.4,0.3,0.6c0.3,0.1,0.5-0.4,0.5-0.4s0.8,0.3,0.9-0.1c0.1-0.3-0.7-0.4-0.7-0.4s0.1-0.6-0.3-0.8
	c-0.3-0.1-0.5,0.4-0.5,0.4L10,11c0,0,0.1-1.1,0.1-1.4c0.1-0.6,1.1-0.4,1.1-0.4L14,9.8c0.5,0.1,0.7,0.9,0.8,0.8l0.3,5.2L5,15.7
	L5,15.7z M17.8,3.5L9,8.1c0,0,0.4,1.8-0.2,2.1c-0.7,0.4-1.3-1.4-1.3-1.4L6.3,9.4C5.8,9.1,5.9,8.6,5.9,8.6l1.3-0.8
	C7.1,7.4,7,6.4,7,6.4L5.3,7.3c0,0,0.4,1.7-0.1,1.9C4.6,9.5,3.9,7.9,3.9,7.9L2.5,8.5C2.1,8.1,2.2,7.8,2.2,7.8L3.6,7
	c0,0-0.6-1.5,0.1-1.8c0.6-0.4,1.4,1.1,1.4,1.1l10.8-5.4h1.8L7.9,6c0.3,0.1,0.9,1.1,0.9,1.1l9.1-4.8L17.8,3.5L17.8,3.5z"/>
</svg>
