<?xml version="1.0" encoding="utf-8"?>
<!-- Generator: Adobe Illustrator 20.1.0, SVG Export Plug-In . SVG Version: 6.00 Build 0)  -->
<svg version="1.1" id="Layer_2" xmlns="http://www.w3.org/2000/svg" xmlns:xlink="http://www.w3.org/1999/xlink" x="0px" y="0px"
	 viewBox="0 0 19.3 18" style="enable-background:new 0 0 19.3 18;" xml:space="preserve">
<style type="text/css">
	.st0{fill:#231F20;}
</style>
<path id="skiSchool" class="st0" d="M0,0v18h19.3V0H0z M1.4,2.7l1.1-1.1l0.1-0.1c0.1,0,6.5-0.1,6.5,0c0.6,0.4,1.1,0.8,1.4,1.4
	c0,0,1.7,2.3,1.8,2.4c-0.7,1.4-2.1,3.1-3.9,4.5c-1.8,1.4-3.8,2.4-5.3,2.6C2.9,12.1,1.4,10,1.3,10L1.4,2.7z M7.7,16.5
	c-0.6,0.4-1.4,0.3-1.8-0.3c0.7-0.2,1.5-0.4,2.3-0.8C8.2,15.8,8,16.2,7.7,16.5z M10.8,12.8c-2.4,1.9-5,3-6.6,2.8
	c-0.4-0.1-0.8-0.3-0.9-0.5C3.1,14.8,3,14.6,3,14.3c0-0.4,0.2-0.9,0.3-1.3c1.7-0.3,3.8-1.3,5.6-2.8S12.3,7,13,5.4
	c0.7-0.1,1.5-0.1,1.9,0.5C15.8,7.3,13.9,10.4,10.8,12.8z"/>
</svg>
