<?xml version="1.0" encoding="utf-8"?>
<!-- Generator: Adobe Illustrator 20.1.0, SVG Export Plug-In . SVG Version: 6.00 Build 0)  -->
<svg version="1.1" id="Layer_2" xmlns="http://www.w3.org/2000/svg" xmlns:xlink="http://www.w3.org/1999/xlink" x="0px" y="0px"
	 viewBox="0 0 19.3 18" style="enable-background:new 0 0 19.3 18;" xml:space="preserve">
<style type="text/css">
	.st0{fill:#231F20;}
</style>
<g id="ticketOffice">
	<polygon class="st0" points="9.2,6.9 12.4,10.7 10.6,12.6 7.2,8.8 6.2,10 5.3,8.8 9.2,4.5 10.1,5.6 	"/>
	<path class="st0" d="M15.3,3.4c0.1,0.5-0.3,0.9-0.8,0.9s-0.8-0.4-0.8-0.9s0.4-0.9,0.8-0.9S15.3,2.9,15.3,3.4z"/>
	<path class="st0" d="M0,0v18h19.3V0H0z M16.4,6.8c0,0,0,0.6-0.4,1.3c-0.4,0.6-7.3,8.3-7.3,8.3s-0.8,0.8-1.3,0.1
		c-0.5-0.6-4.6-5.2-4.6-5.2s-0.4-0.8,0.3-1.6C3.8,8.9,10,1.8,10,1.8s0.5-0.5,1.1-0.5s4.6,0.1,4.6,0.1s0.8,0.1,0.8,0.9
		C16.4,3.2,16.4,6.8,16.4,6.8z"/>
</g>
</svg>
